<mxfile host="Electron" agent="Mozilla/5.0 (Windows NT 10.0; Win64; x64) AppleWebKit/537.36 (KHTML, like Gecko) draw.io/27.0.9 Chrome/134.0.6998.205 Electron/35.4.0 Safari/537.36" version="27.0.9">
  <diagram name="PÃ¡gina-1" id="IKVGy_DopQR0RWY-qbrC">
    <mxGraphModel dx="1113" dy="1947" grid="1" gridSize="10" guides="1" tooltips="1" connect="1" arrows="1" fold="1" page="1" pageScale="1" pageWidth="827" pageHeight="1169" math="0" shadow="0">
      <root>
        <mxCell id="0" />
        <mxCell id="1" parent="0" />
        <mxCell id="JDgJbb337nKRCkUa-LNC-1" value="" style="shape=image;verticalLabelPosition=bottom;labelBackgroundColor=default;verticalAlign=top;aspect=fixed;imageAspect=0;image=data:image/png,iVBORw0KGgoAAAANSUhEUgAAAiIAAAC3CAYAAAAvgDXzAAAAAXNSR0IArs4c6QAAAARnQU1BAACxjwv8YQUAAAAJcEhZcwAADsMAAA7DAcdvqGQAAK3GSURBVHhe7J13VFTX2rgfhhEQVCwBFRTFAljAHmsssUaNMaZq1BiNxvjFJH4/r4m5JpqYotEYPyzYNXbEErF3jaggdmwoKmKkSVOkDXNm//4AZco5MIhRkpxnrbtWrnPK3u/77nc2zGEeGyGEQEVFRUVFRUXlOaAx/wcVFRUVFRUVlWeFuhFRUVFRUVFReW6oGxEVFRUVFRWV54aN8TMiOXEXOXMzDcniqRENlb1a09DVFgypnN++i0Sf/nT3cjQ/sNgYkk+zdU8afgO6UtfB/NU8rDnGkkxu/rGdP27Z0bhnX1pW05q9nsPVXVu41+RtXnIrZD+WE0vE6ZvcN5j9u005ajZtSi0ns38vlTwkas9Kfr/fhc/fboB5JFRUVFRUVJ4XJu/A9tV9cD//Pa907Ei3yX+gcbDDJv06wd8MZOKOhwAY7q5m3NtDeHvyDuNTnxCJ64s/4Z0hA/luT7b5i/lYc4wZhhQO/KcjLbq/x/BhA2jX8m2W35JMDnl4bAqD3p5E0LVck3+3wN6V2pXC+OaVd5l9Nhu9Xo8+N50bm39lxXmd+dGlEkPcZXYtmUHAkThMo6CMITWZVPPNVymitI9PRUVFRcU6zH4VoMXVzRV7G7Cp4EHTli3xat6XH5f/ly5l80+oOYIlB3ay55fXTE99Imzx/uQ39u/cxfQ+Sr/qsOYYUwzxJ7jdag1302+w8YN6iNjtLAm69fhN2JCyj2/HBnA+y+JXPzJoKe/pRa0KDlRv/BKdO3emc5dXeP/bL3mjmq35waUSTfUW9GzhjtWjNSQQPGUGB63c9z1zSvv4VFRUVFSsxnbKlClTjP9Bf3ULszZcINf7db5405Z1K6/SpMebvOjjiK1Gz90jy1iyJYyrWTXp2qQqkM6Ftb+yZNcBdh55QN0X62NzaS0zfl7OthuOeCSt5P99tR3RthvehlOsmLGILZtXsOasA01blOHE4iVsP32d3Fov4euqwZAaXsQxkBgSwJRftxF+bB+npPq0qutssqOyKe9Fs0YvUMbWGU+bMyzcEIX3oC8Z1NQRDPEET1tHjvtDDoVl0nLo//BKbQ0Ju79j1Fc7MLTsSqNKZvsz/TWC/fdgN+B/6O2pBSmao+Eamjetgj7hNFuWHSHTUyJkfgBbrjvSqLGW82vms2THbSr5+VLNIZs7xwMJPKvBKWotc9aeJNPNF68qgvjwTSw/+gCn6+tZet6ZlxqX4+aBNaxYF0zIn454NXLHSSRzeutG9oee4tTZZMr51qWKJp3Lwb+xbvdBDp99iJtvPSqZf+YiJRAauJJN+8O4FnmKcG0PxvTxREum5T1s8s8x3OPojKGMmB2BZG/AwcWN1IO/cfSBE9fXL+W8cytqJe3kt3W7OXj4LA/dfKlXyUB8+EZWHNNTM2MfcxbuJrFqcxq6lAGD+djdyQyVi0UZQE/ciUDWbN7DgdNJVG7gjYs96OLD2bT8KA+crrN+8VGijv7E+Dn543NvTj37aA6sWcG64BD+dPSikbsTj6ajoqKiolLKEWZkbRkiqmhsRJlm74tvPmwnGnywVWQZH5AQIHrYaUSlQRuFEHoRFfCKqNpoggjNuilmvlRBtJh8RoiszWJwFY3Q1uslPv3sPdG6bhfx87kosfS1aqLuJwdFSvAwUU1bXQzf/lBE/dxelNFUFR8EZwmhjy7yGP3V2eLlis7i9VWpIjvkf4WXYyMx/o8M4xEaoRdRMzoIxzofiV1pef8/eu2X4pvtceLqtLaijG0dMfZQthAiRxwb7yPK2FYXw7ebzDaPrGDxQXUX0fF/pomff54mJo/sLLpOOilypVRxacsnopljKzF68VoRHPyrGFC7luj7pb9Ytnmz+Lmfh2jyVbjIiQ8XAQPrCNf2w8XkGf5i6qDGwrnGYBEYeUEEjfYTTk2Gil9mfS3GTN0mbiwfJyZujRW52dfFnJ7VRYvJ4SItaLh4b0G8kKQEsXXSD2JfthBZO0aIun0XiyQpSax50110nxsjJOMxS0lix9je4qPNd4U+96ZY1NdVeI45ILKFXvYeJqQtE31d3haBGZJIvhgkRvs5iSZDfxGzvh4jpv6+Voyo21csTpJE0po3hXv3uSL6XoQIHNVYlG8xVEybv0as/KKjqNZxpriuFxZj33NbPhZBibnibuBw0e+rEJEmZYvIRf2FV4ep4mRGsrgYNFr4OTURQ3+ZJb4eM1XsjFqSPz4hhP6GWD5uotgamyuyr88RPau3EJPDc03no6KioqJSalF8StO2VmdGvN+N+o5mP1va2GDz6J+kG2xcuZ8U6Q4HF2/hSo4NN479AWjQaMDGoTlDZq4mNOog/1tuM8t2JVO1Zk0q9JzC+jVL+N+OZbHV2j7+6VWK3lDEMXour1/F0fTKuLmXRVu9Oq65V1m36g9yHg/QiIzjBKzP4qNFP9HDGaRry5l1qR0j2tuRpTMABnKzstFjR7ufQrh69QzzlD7+samA3xuf85//fMGUWVN421MLmoo07NGG2vZutBs0kFdf/ZDXmmRg7zeCD15/nWF9GpIQHYOhajO6N3Ongt9AJo4fy6Sl/gyx38mWC3V5pa0ndnW689G475g3sQ7rloXzMGk/6zacwK7rCLpX12HrYMOJ6YMZvySSZuPG0sYe7JqPZN6kziTu287FdA2pSWkYPzIhRS1j+l5P3unthq3Wg04d6uc9pCpFyt5DHg2VG71CW0876nT/iHHfzWPSq10YOW8SnRP3sf1iOprUJB5UbEyP1rVwqNuHsR8PYtD7PfGMj+ZPPRZjb+chH4tNB8+y5JcQPLq3xFljj9fQsXS7G0DAQUcavdIWT7s6dP9oHN/Nm8QrLxSUrRS5jmXhD0nav44NJ+zoOqI71XVZJrNQUVFRUSm9KG5EQMsL7T7lo+4VsAHuXzzPDfMnHaVkklIFONTnlY//lyVhaaTu++zxyzZV3XDPv4N07x7JBkFibCySXS06vd2bRuULLmXdMQZSU9IQNmWwK/P4swTup6bJPIR5nyPf/0zCJ2uZ1rUSWQnxRB/YyMIf+lGrUhWafRNGrhTNoiFj2Z4NaKtQp141FLYhppRrz3vvNMQmJwewwebxzkyDraZg46bVaBDCYLRByH/Nzhvv2jZIerCxscHGRpP3ipRKSopEtbaDGDJkCKP+M5XvP2xNub7+7JndkdiAATR5+SsOJRgwZESzJ2AB4a496e3rDGZfkKu/eZ1bepvHm7z8OyjeQ5m8+dk8mpchg+g9ASwId6Vnb1+cEQjy5vGYMrbY5s9bbuyPrgtGsdDFE5uQSdajPYS2BjWrZZP+UMrf/NpgFNrHSKkppEjVaDtoCEOGjOI/U7/nw9ZmhaWioqKiUmqx3Ig8fkMTCE0Ver/WCfuMU8xbcgS92aFo69LQyxHpyk5+v5gD6Lhx8WrB60ZvjnZeTWlcwUD0zg2EpAOG+9xLNv09RtHH2NHoxaZUIIOMDIF4+JBM7PFt0QR7o6PAQOymzxm7U0O5c/OZ8OkHvDVlL+WGruL67dvcvn2LkEktKWNbiw8Wz6CXg4GE3VMY9PZ/2BhtuaUh7yMsCmajxck+mtXL9j16seBARQTZ2Zl518i9RfSDdnRr55AX50eH2PnQqtFN5o2byR/xOehi9zNnSQgp27ZwpcPXrA8PZYprMOtDHhI2/1sOVHuLd5uVJf1+NkLoyMouyJDWx5f6SXsJPJSMAdDl5qLT5SjewwSNDTZSLrmGdNLuSybz04XN59sD1Xjr3WaUTb9PthDosrLRK4TAcuw6+Vh0akPX9oKjO4/xEEAfR4LhZV7tlPeUtEmIjcaX6daCRjfnMW7mH8Tn6IjdP4clIRlGB6uoqKiolGZMNiI5cefZcegS6UKgP7+Zn+fOx/+n//Bux97MjKtKDVtA8/hna9C48s6k/9Kl0nl+6tuZNz+cyN77LqRdOc+NhwLD7XCO3MrMO7bym3z742u431nEwC4DGDVxBedS7hJ29k8M4gHXTl2w6pgqb33P9NfLcWrDaoLWHSa90zf88j8NTP4iRHdpLsNGryTiQjAL/u//+L85a7hTuSFVnFyo6eGBh0dNqpYrA9jiWKkiDuiJ2r+ejZtWszPC7EOe7NuErAvmTEoCx5f/zIwZM5gx/TvG9nuP/c5+RO46QmTWNY5svcDNiG0cuf6Qa0d2EHHjLFuPRvHgyhEOROW9MWadC2L67Ln8OnUDjl/OZliFKwQfuU5mxC7WnUrEQBXemrmEoWIZr3vXwHf4YXz6tUefEMy3H/2XOb/t5l7jTxndtRxenbtis2Y4/UbN4qLWlaTD6zkYWzBs29oj8f+1PWfGdqT70C9ZeUGPfXwoe6PKytzjpYITAco2oZ3vOWYOm8W+8G0cuZ5JxK51nEo0oPXqTFebNQzvN4pZF7W4Jh1m/bY/2BVynfSrh9l16Rqnd4UTcy+CA8ejZcae9zsn81gM93DhjV+W8Hb09wz57Dum/bAD169nM7jqAy4FH+F6ZgS71p0i0WA8vtmc0L7JzCVDEctex7uGL8MP+9Dvpb/Fl7uoqKioqJh/oVnRGDCk/cZr1T7kxNubSFrZP++fM+K4EpWKc10f3MpZ/pLFmJzESCLvOeLZoCblFQ4t+hgdKTevEqOrio9PVes+TikK3T1uREu4e1n58UyxkLgxowu9bk3m4vyuZr+9+behxkJFRUVFpQCLjYjJZ/3/Ioq1Hys2Etemd+KVm19zeWHPf/mbrxoLFRUVFZUCZH/foPJ00d0J40iKB01sLnAwMt385X8VaixUVFRUVIyx+I2IioqKioqKisqzQv2NiIqKioqKispzQ92IqKioqKioqDw31I2IioqKioqKynND3YioqKioqKioPDfUjYiKioqKiorKc0PdiKioqKioqKg8N9SNiIqKioqKispzQ92IqKioqKioqDw31I2IioqKioqKynND3YioqKioqKioPDfUjYiKioqKiorKc0PdiKioqKioqKg8N9SNiIqKioqKispzQ92IqKioqKioqDw31I2IioqKioqKynNDdiOiT7nJ+XORJGQakNJSuG8wP8I6HkbtYf7MDVzRm7/yF2FI5o95U1l7SWf+igWG1PNsXfA9X070Z9/too9/qhRjnMXCcJ+ru+bx46rzPKuQWyA7t0yijmxm94VknrCU4HnU0z+Vh1HsmT+TDWogVVSemOL2o5zYCI6HhBBi9r9j526TYX7wE5PDw4f5vVen44neYXJiiTj+aHzHCL+RVqK+bQ1mGxGJW+tG88a4tZyNDGPNV/1p+dJ/OfokszHEcXnXEmYEHCFOMn/xr0KD1s6eMray+6sCpGss+J+F6N79nDcr7+X7gFDzI/4CDKQmp+Yn1MpxFhNDUgzhG+cw98DtZ7wRKWJuD/cx7YvNpFSoaF5w1vNc6umfiIG4y7tYMiOAI8UJpCGV5NS/uh2VgNI+vmeAITWZv0MISus4izWuJ+hH9q61qRT2Da+8O5uz2Xr0ej256TfY/OsKzj/Je6wF9zk8/X16NfWm/cgZBPiv58yTXNf+BTzKh/Dfnn2YfMKJ2u7ln7xvW4np9XWnWDD9Em3/O5Fh7wzlf2ev4sf+VZ9sEJrqtOjZAndb8xf+QjSVaDdyAm/5aM1fMcFwdyebLjhQ3bEcLf+znSPTOpof8tQxJAQzZcZBsrF+nMVF49qITn5uT5avElDU3PS3DPSYt5BBtUtQDM+jnv6RaKjeoictihVIAwnBU5hxMNv8hVJCaR/fM8CQQPCUGZT6EJTWcRZ3XE/Sj7Tl8fSqRQWH6jR+qTOdO3emyyvv8+2Xb1CtONdRwqCn7uBl/HF2FxObaynbrgcv2pkfZA12ONdvRB3nF2jQsgEuDk9jcIVjO2XKlCkF/zeT8+u/Z84BA36d2lDH2YlatapjX+UFKmmAzJscWLOCdcEh/OnoRSN3J2yMrwaAREJoICs37SfsWiSnwrX0GNMHTy1k3jzAmhXrCA75E0evRrg7CZJPb2Xj/lBOnTpLcjlf6lbRyBxnQ/rlYH5bt5uDh8/y0M2XepVk3sSz73A8cDUnbZvTsGIi4RtXcExfk4x9c1i4O5GqzRtSOfEQS+etIjjsLgYyoXpz6lUyEHcikDWb93DgdBKVG3jjYq8jPnwTy48+wOn6epaed8Qr5xjLjmTiKYUwP2AL1x0b0Vh7njXzl7DjdiX8fKvhQDqXg39j3e6DHD77EDffejinHmXG0BHMjpCwNzjg3tCeK0H543QKY9G3S9h75hShx/9g79atnMptRPtqfxL82zp2HzzM2Ydu+NarhFYXT/im5Rx94MT19Us579yKxq7GcRA8CFvJ0vg2fNrfG236ZctrGB39GF0MR4KCOREeyulYCZvsDHB+gXI6mXwbkjm9dSP7Q09x6mwyjtViWTZMYW6uGtDHEXb4NJEXjnI6qTINvF2wR0d8+EZWHNNTM2MfcxbuJrFqcxq6lDEfWTHrybgaDcSFr2ae/2buuL9EQ10oy/3nsPe+F229HUlUur+VMbO8dy4Jp7cUWR/cOU5g4Fk0TlGsnbOWk5lu+HpVQcSHs2n5UR44XWf90vM4t2qMq0z8RfJptm7cT+ipU5xNLkezulWsWxuAlBBK4MpN7A+7RuSpcLQ9xtDHUyszF9M43js6g6EjZhMh2WNwcKdxuSi2mIy1Fkk7TWu+kiFedv25lDFYrHn3zFDZmJQB0MdxInANm/ccKKgfk3WwmKNRR/lp/JzH42terxLZFnOS7zXmGFLOsXnZSrbsP0ds7DXuODSg3I21CnVUEY0VPVEnk9tyMWbjs/2T44GBnNU4EbV2DmtPZuLm60WVMsjm1+Sai48SdfQnxs+JQLI34ODenHr20UWOK1uhFsvI9LBKWsCQwrnNy1i5ZT/nYmO5dseBBuVusHaeP5vvuPNSQx2hy/2Zs/c+Xm29qajJ5OaBNaxYF0zIn454NbDjzMyhjJhd+Djlatxs5Nw5HkjgWQ1OUWuZs/YkmW6+eFUpA+hlerl8Dh63TsM9js4wG1f5BMu6A+V+lGVd39BfC8Z/jx0D/qc3nlqQoo8SrmlO0yoaDObzds9UrAm5PmVIuMS+zSeR6pXl9okLxNvXpUVDF+V8Fob+GsH+e7Ab8D/09rQ8WB93gsA1m9lz4DRJlRvg7WIPWK5tuTUmizAj69IKMaJpRVHG2Uf0/zpIXErPf0F/QywfN1Fsjc0V2dfniJ7VW4jJ4blmZ0siacdY0fujzeKuPlfcXNRXuHqOEQeyhdDfWC7GTdwqYnOzxfU5PUX1FpNFeFKQGP7eAhEvSSJh6yTxw75s+ePSd4gRdfuKxUmSSFrzpnDvPlfESGa3FpJIPLdcvO9VXby/NUMkRwSKUY3LixZDp4n5a1aKLzpWEx1nXhd6IUTu+cmiZePx4lhO3nl3A4eLfl+FiDQpW0Qu6i+8OkwVoXcviqDRfsKpyVDxy6yvxcdfLRBbPmkmHFuNFovXBovgXweI2rX6ii/9l4nNm38W/TyaiK/Cc0XWjhGibt/FIklKEmvedBfd58YISQiRtqyvcHk7UGSYjDNLSIkbxbLNSXnj3zZK+NQbLDbczRA7RtQVfRcnCSlpjXjTvbuYG5Mrki8GidF+TqLJ0F/ErK/HiKk7Ey1iEDO7i3B/f6vIElky17AImhAiTez8uJV4d3WikLLCxJd+FUWbMcvFsT+vy+Y7LWi4eG9BvJCkBLF10g9iX7by3IR0VwQO7ye+CkkTUnakWNTfS3SYelJkJEeIwFGNRfkWQ8W0+WvEyi86imodZ4rrevOxFbOeLMoxWszqXFMM354lhMgVJyc2FX4TQkWW4v2ti5ncvcPuXSq6PsL+FOEBA0Ud1/Zi+OQZwn/qINHYuYYYHBgpLgSNFn5OTcTQX2aJr8dMFTvj5OKfJIKGvycWxEtCStgqJv2wT4gsa9aGEFLSDjG290di8129yL25SPR19RRjDiisN/M4ijSxrK+LeDswQwgpWVw0G+vva4eb1Xy0uKe0/tLM1vye2/IxCUoUkmz9hIq7FusgqmB8CvmR6zXmSPHB4rO3xoudsXqhjwsSg2vVEWMOZCvWUY41PVEmXttOLjUb3zdi94kAMbCOq2g/fLKY4T9VDGrsLGoMDhKJGTL5zbW85s6oJaKvy9siMMPKXi3FK8Y9Q66HSfEi+LO3xPidsUKvjxNBg2uJOmMOiGwhiehZnUXN4dtFlhAi9+RE0dRvggjN0Ysby8eJiVtjRW72dTGnZ3XRYnK4EGnLihinTI2bIcWHi4CBdYRr++Fi8gx/MXVQY+FcY7AISsyV7eUnM2TilWi2SIzHJVt3J0WWYj+yrm8IIURW8AeiuktH8T/TfhY/T5ssRnbuKiadzBVCpJnNe4+ID1eoCUnmftH3RETgKNG4fAsxdNp8sWblF6JjtY5i5nW94ntSoWQFiw/c6opPDsqsk7uBYni/r0RImiSyIxeJ/l4dxNSTWUKYr22ZNaaExXbFoeH7LAm7yL7v2hO/+D1at/2EbQkGpMh1LAt/SNL+dWw4YUfXEd2prssyPVmKYtn0vXi+0xs3Wy0enTpQXwsgEbluGeEPk9i/bgMn7Loyont1dDoHbE5MZ/D4JUQ2G8fYNlr546TmjJw3ic6J+9h+MR1NahJpFp/laXDx7UFLDw2goXLjHrSu5UDdPmP5eNAg3u/pSXz0n5bPTugvs+SXEDy6t8RZY4/X0LF0uxvAwjN1eaWtJ3Z1uvPRuO+Y/8NH9GhTG3u3dgwa+CqvfvgaTTLs8RvxAa+/Pow+DROIjtFj13wk8yZ1JnHfdi6ma0hNMn/Qx3icoHF5gw9er4IUs5b/+ew43QP8ecvNgeYj5zGpcyL7tl8kXZNKUhpUbvQKbT3tqNP9I8Z9N49Jr7iYXNkUO5lrWAQN9FEcO3EfF/cKaBz8eNGvLLa1OtDyfqBsvm0dbDgxfTDjl0TSbNxY2uT9mJCP6dz0l5fwS4gH3Vs6o7H3YujYbtwNCOCgY2N6tK6FQ90+jP14EIPe74lnfDR/mienuPVkVo6gRWtb8HNgGW3erxg1lZXub03M5O+tt29YdH38WYVm3ZvhXsGPgRPHM3bSUvyH2LNzywXqvtIWT7s6dP9oHN/Nm0SPFLn463CwOcH0weNZEtmMcWPbgJ01a0Miatl09nq+Q283W7QenehQX6s4F8s4GqGpTCOzsb7aZZRZzT+gotL6szVb8+085GOy6QgPZetnIWfqmq+DF4wGqDAni15jUrh55y37mXDfYfSoboutS1Ma13z0K2n5OrKqJ1rEayJ19q4wG58b5X2608y9An4DJzJ+7CSW+g/Bfucmjhhk8ov5NSfxygsFrdy6cVVVjLtBpoflRi7j53BfhvWojq2tC00b1+RxdLS2Bb9tKaPN+3cpknXLwnmYtJ91G05g13UE3aubPrAgP06ZGjdDU7UZ3Zu5U8FvIBPHj2XSUn+G2O9k08Gzsr084KCjZbxcLN76HqPUt/ZnKPUja/pGATYV/Hjj8//wny+mMGvK2+T9wsHWbN7tqNpMoSayZe73oCKNe7SmlkNd+oz9mEGD3qenZzzRf1rznlQc9Fxe8gshHt1p6azB3msoY7vdJSBgP9nma9tijSljmg0pmhMnbiPZudPp0yWEnN3EQN0Kflkbg5SaQopUjbaDhjBkyCj+M/V7Pmxd3uR09De5fkuPzaOq1JBfoBKpKSlI1doyaMgQhoz6D1O//5DW1fviv2c2HWMDGNDkZb46FCt/nFMG0XsCWBDuSs/evjgjECY3foQNNo9vblMwDqCMrS3CIBN+KY7YhEyyHq1TbQ1qVssm/aGEjY0NNjaagkVmY3RNjS2axy9o0WgEwmDAkBHNnoAFhLv2pLevMwi5kRqPE9BdYd7I/xIzeAk/dasEGMiI3kPAgnBce/am4DJ559kU3LgQlK5hhrYx/d6oRviGvcTEhRGa0JJ3+9YGhXyX6+vPntkdiQ0YQJOXv+JQgnlMC+YmxcWSkJlFQWhrUi07nYcSpvMvY4utMFgujuLWk1k5Fob8/a2JWSH3tqI+HpH3kh3e3rWxkfT559o8Pkd+vVWnr/8eZneMJWBAE17+6hAYrFkbem5ev4XeIpCFzKUwzMYqX/MK66+c+ZpPKLgsmMREuX4KWwcKc7LoNQX3zUPP7Zt3kIwHXQTyOZIJnkm8FMb36LT829t5e1PbRkKvlF+zHBhj9bjyMY+7XD71t29yR7Kx+HhHESmVlBSJam0HMWTIEEb9Zyrff9ja7BC5ccrUuCKPg4V3bRskXbxiLy8sXuYo1l2OUj+ypm/IU679e7zT0IacHAfleZvXhNL9bIzzUwZbW4HBoLQ+n4yc5HjiYhPILAgyNWpWIzv9IVIha7soTDciIpl9i3/jTGbe/7Wt1o4OjV7gBRcn7Hxa0ejmPMbN/IP4HB2x++ewJMTsj460PvjWT2Jv4CGSDYAul1ydjhzs8GnViJvzxjHzj3hydLHsn7OEkDvb2HKlA1+vDyd0iivB60/KHnfo8Hy+PVCNt95tRtn0+2QLgS4r2/K3G2ASZMVwi7w3BQFg35yu7QVHdx7jIXmfSScYXubVTmVBpqkXnkMdYfO/5UC1t3i3WVnS72cjhI6sbD0aGxuk3FwM6Wncl4wvlEHYj8P5Rfwvy/7bGifpDmfDdzD/2wNUe+tdmpVN5362QOiyyNYXOYACdGHK1zBBi6t3D17vVJbL5zUMW7+FTxpqFfOdsm0LVzp8zfrwUKa4BrM+RKc4N/vmXWkvjrLz2EMA9HEJGF5+lfzQFk1x68n8b+A0ZXF0yCIlOROkBK7fSiVbl/9Tmdz9rYpZ4fe2Jj0iO5tMAZDLregHtOvWDgezc+Xjf4dtW67Q4ev1hIdOwTV4Pbowa9aGFh/f+iTtDeRQXiDJzdWhyyl8LgVosLGRyM01kJ52H5PyLaTmZUORYr7mQ0AhJs6F1o/x1Y3Hl0V9uTlZ9Jq8+xagpX6D2kRuXMShBAOGB7e5k5K/cVSoI/kcWQQPTIZbSMxFNtl5QSD3VjQP2nWj5Xnl/JqGwAYbKZdcQzqZbi2sH5dF3FtyXiafuR5e1I7cyKJDCRgMD7h9J+XxX8mVdXQgKyWZTCQSrt8iNVuHzs6HVo1uMm/cTP6Iz0EXu585S0KsGKdljcsjyM7OzKux3FtEP2hHt05tCunlRaxNo3Fl1esiX3flFfqRVX3jEQJhPBCtE/bRq1m2L0Z+3jI10U6jdD+5CSqtTx3JFw5zKlbpT34EBmHAYHzJnCus33yR5l3bI47uJC88euISDLz8aifKKqxtazB9WNWQQPiGFQTuCuVU+FF2rV/N2Rrj+fmzFlQs14A2PskET5/Alz/8xpkXhvDFsIaUN95hairSpGVVIhZ8xfeBp7iddJeb19NwrPsivfv3xic5mOkTvuSH387wwpAvGFrzLD+Nms25nAwS7tnQ4p0P6Nqrs8Vxw5rZcW3VNGZvu8r9cloSjoRz36cr3XwqGe2kDKRc2MCCgN+5at+K1q4RBC0OIsLGj471M9i3agk7bpWnXStXIjcuZNneWzh4+eJdtz5tOjXk3qqfWBh2m+iTl3AaNIXRdf5ky+KFBIVn4NG2A00r/Mm2RfPZcFbC56XGcGwNi4POY2jUgQa6Q6xatJlL2pb0aw/bZ85m29X7lNMmcCT8Pj5du9Gw4h32+C9mb059mjmfYc3CvHG2tVnK0M9P0fjtDmivn+bEjqXsSH2FnhWCmTZ7G1fvl0ObcITw+160qn6ZoMVBhGd40LZDU9xMHioEQ+pFNi4IYMtVe5p36U7tpECza/jQtZtP3oPHj09KZtf3I5m8JoTToYfZ/XswR2Or8GK3V+newDzfPhDyI6NmnyMnI4F7Ni1454OOeNrflp1bt56v0rfJPVb9tJCw29GcvOTEoCljaM5VtiyeT1CEDX4d65OxbxVLdtyifLuudPV0LhhbMetpWMPyZj+x2VHZcJHZ/53BzisS1SvEc+aulgbezpwPWmh5//b96KDbWmTMHBu0sby3R6wV9dGCl/2SCF6yn9jcLO6e3c1R6S2mfOpD3O+LWRgUToZHWzo0dcPJSWa9Da3J2Z9GMftcDhkJ97Bp8Q69Xq5GZJFrQ0PFJi2pGrGAr74P5NTtJO7evE6aY106DRtKuwdFxdEWcXsP/ov3klO/OZUjAln0eKzuvJAbyapppjVfs9ZDDq/ZaLH+2rSxYe14f5M136b8GVYEmMXk8zZULteA9g3N62c0df7cwuKFxutAWzA+7y707NeDhlb0mna1HIzmqKGyb2OcQmbx+aRFnHhQjQpxp6HrGPp4OsrXUacPGNQ2rfCeaEjj0mbT3Lo0lKkfn1xOrAhgf2wuWXfPsvuoxFtTPqetu94yv16tqH45iMXG9aIV3N7jz+K9OXj3HsXg1qmFjwsQqcdl4t4Wd71lPhu8OY43axxn1ueTWHTiAdUqxHGarozp44ljZQMXZ/+XGTuvIFWvQPyZu2gbdOKjQW1JDp7OhC9/4LczLzDki2HUc6bwccrUeM92tUwHjiD1+AoC9seSm3WXs7uPIr01hc/b1KBRe8tePqap4LJZDsxaJ9gax28k77dNsuxbFSvJ96N6nWnH9iL7RvbtENYtXsrG0Lvk2jwg6uRxQg6sZ9pPl3nxy1dJ+9Vs3m3Kc1ymJtpUcUIXucrsfjWp9fAwazZGYOPXkfoZ+1i1ZAe3yrenX2sdW382e0/q4sPpiQP4v8w+DG1j9jBw9m2Or1vMwg0hXLlzl5tnDrJn+0YWfTedGy9N5v13utHw3ip+WhjG7eiTXHIaxJQxzSn/8Cg/FrrGlLERJtszlX8d+khWzwzBa9DLVHhwn4fpKUQFbSZu9P8xzuuv/7OtfxvSjRl06XWLyRfn09X6j1D/0ZTKmEhRTO/cm5hvI5j38jMYlHSDGV16cWvyReY/oyA8edwloqZ3pnfMt0TMezn/r0meJRI3ZnSh163JXJzf9Tnc/xnxHGrieaH8xI7Kv4KcI/78uPkcN+IMVHKrSVWnLFJc29GtJN/5oaKMZMBgkOQ/Vvy3UipjokeSDAiLB5f+KiQMBgPSswxCCeKulyQMzy44FkgGA4ZnGqznwXOoieeEuhH5l2Pf5TtWfurC0TlfMGbMBPwP2dDj00H4PtEX4agUiu4OYUdS8Ghiw4WDkaSbv/5vpFTGxED8mRBSPZpgExHCzfxn5v46dNwJO0KKRxNsLhwk8lkEoQRxN8SfISTVgyY2EYT89cGxQHcnjCMpHjSxucDBZxKs58FzqInniPrRjIqKioqKispzQ/2NiIqKioqKispzw+wr3v8OPCRqzxKWnSnHi41cnsJOqnjXM9y/yu6liwi1b0sT13Su7l7KolB72japVuS5JcXk3tX+6rv9symtsTQk/8H8X47h1NYX17/LYzoPo9izZBlnyr1Io0K+KArIM0Q/wzVT6jAk88f8Xzjm1Bbfv02Ci5ljK1Fcg5l3OH8ygqiYGGLu3OHP2ETSsm0pV7EcdjYAGdw+F87FqD9Js3WhaoVHX0H+kOiz4Vy8EcOd2EzsbRO4cP4at2NiiPkzDVuXqjw+9BkgpVxk26IVXKjUhkZGXzj312Pg/tXdLF0Uin3bJjwOrSGB0zv3c8uuDh4V82vPkMr54N9YsmIT50R9WtetaHyhZ8azjM5TwRB3mV1LZhBwJA6lv4AuDsW7noGkmHA2zpnLgdv6Z2y7Nb33345SZUctxbHUaLGzL8NTFjP/hRTP5vts10xpRMZOXeopXo6to5A16FAVD4cD/Kf72/y47xbxsdc5tvoLevm1YuAvISQbylK1uj2RCz+gQ+f/YUvco77iSPUaBrZ/N5drrjV5waUGVSJm0L/HRP5w8sDFur8kfUpI3Is5QZD/EkLinn6lF2oKNiQRE76ROXMPYBxaKWolX884h6bKowcAJa4t+B8W6t7l8zcrs/f7gIKDnzF/p9UAgKZ6C3q2cH/89cIlpXjX0+DaqBN+bnlhe7a2W9N7/70obXbU0htLTaV2jJzwFk9ZzPwXUjyb77NdM6UQGTt16ad4ObaOQtagxo5KDRpR28mZRj3eZsCAgYyesoJ9694l8ac3GLbsNmWqtmTw+72on7GFj4b6czEn75r2Ln40bO5NoxpO2Gqd8WzsSeXytWngXZFn+/y9LdV8X6JhVfMvLHkKFGUK1rjSqJMf5qFNj63FmFXf0PbRl+wa7rJz0wUcqjtSruV/2H5kmukJzxDLj2ZkbJK58eFsXHEMfc0M9s1ZyO7EqjRv6EIZQIoPZcvGHew9GEFuLV9qldfI2CINZiZbZ15qXJGYI0EEnwgn9HQskk02GTjzQrkseVOglEBo4Eo27Q/jWuQpwrU9GNPHE62cnRMsTYbmBkel68nM36SUxAPCVi4lvs2n9Pe2NbXdWlhZG2B36TdmzlrFoWgnvJt7oLmxnYC5u3hYpxUud7dbESdXhXtr5c2kRRkQs+8oGh0t86YFDKSc28yylVvYfy6W2Gt3sKucxs75SsZNmRicmWlib21ez55oYytnI3echKnVt5xvXUzEjWbW37zX5UybVpp9n0YsAZCID93Cxh17ORiRSy3fWpTXyNguDQmc3rKMI5meSCHzCdhyHcdGjdGeX8P8JTu4XckP32oOeUbU1Sexbd4QV03et0NajEunZLZVXr/m5tHK92TsmbIxNpuuEU9m8zUzRKNg8ixyLJZ16dCgHDfWzsN/8x3cX2qILnQ5/nP2ct+rLd4V5a3eJleU6xky8TQ7q3jjcLhbYAh31cheXy5fFrZe82/kkjFoGzJv8ftChXWaIWNvlblvlWT5HFv2iiJ6F2Ym3kbuOGG2Bo3JvczmXw9RYeDH9Mh3/mirNqfG7UVM3SjRZ+TLuN4OIab5KGrv+n/Mjm7Buz3qUtYmhwsHTvBCly6424IUs4eAoCy6f/668ua+sPUka/PVWWXadhBJhKxYT3rbzmRvDSDovISHX508M7W5Rb1cjEUdyG5h5EzBMgZjHoSxcmk8bT7tj3feGxPHjoVz+sixvGOqpXF46TxWBYdx1wCZVKd5vfIkyMy1sH4qu3afBBMFnpwNMSxB0eqnv7FCjHjfX1zKksTdBb3EC+2niysPLW2R0fdMTbZjpu4UaTs/Fq3eXS0SpSwR9qWfqNhmjFh+LE7eFCgliR1je4uPNt8V+tybYlFfV+E55oDIVrQkmpsMzQyOSteTm7+FtTJGzO7inmeXNbHdKlg/c5PExsEeosU350SuEEIkBYmpM8NElow1VS5OivdWmnuhBkRJ2egoZ/mUJBEf/Jl4a/xOEavXi7igwaJWnTHiQLaScVMpBkb2ViFv5ZSz+hpj+bqSNVnJrGt6vZLHUuTNZcUI8b7/JZEl3RULer0g2k+/IlPD0SL50hbxSTNH0Wr0YrE2OFj8OqC2qNX3S+G/bLPY/HM/4dHkKxGekyjOLX9feFV/X+SVl9y4QsVdJbOtXP2GJViYR7dfWCdrz7SMsdl0jXhym6/pmlEyeRY+FqW6FEKKniU61xwu8kS5J8XEpn5iQmiOFeOS6Rly8TQ5qbjjyDK1U8tdXyZflrZey7HLGrTjchXWqby91fy+269uk82xnPG58N4lv+ZNe6kZGUFiYBUfMT5Pkf6YpEW9hH3Z18TKdCGy938lJm7JEFlnZ4guLu6i/5IokSvSxMovvxFh+afl/PG58Ko6RGyRuUUeUiGmdoUeE2eFaTs8Vwj9FfFjWzfRYeR3Ypb/d2KQXyVRa+gGEXnBzB697aRlHZi/7xhTpME4V0gxs0UX9/w+onCMyD0vJrdsnB9jhbkW0k+V1u6TYPIzhqwNUV9WweqXTcRv87jp2xdvBw1uI1YStvpD6pe1tEU+qNjIxGQ7b1J3oo6d4L6LOxU0Dvi96EdZ21p0aF1N1hSYG7WM6Xs9eae3G7ZaDzp1qJ/3k5SSJTHb3GRoanCUFK4nO39za6UiCtbPrCq8+slAcgOXEpItcXvbDdzfaIGDjDXVMk6vmN/kMYpzzy3MgKhRNjrKWT5zI1n2czi+w3pQ3dYWl6aNeSQklTVuKsbg8QAUrZyFW32xfN1WyZpcT8Gsa3o9Y54sloA+gt/m3cS3rzcOGjdGrAxj9Yf1ZWr4ARUa9qBNbXvc2g1i4Kuv8uFrTciw92PEB6/z+rA+NEyIJsbggm+PluTLixXGtZAz9eTNtjly9asva2Ye/ZJaW36VtWfmmsdY8Yebp2XzVTZ5FjoWSbku0WopEOWWIU+Ua824LHtGkf2g2OMwtVPLXt8iX3K2XrOxKxi0W1fTKKxTeXur+X3rB8+QyTGyxudCe5fCmi8+BnJz9WDvgMPjdy4NDk3/l9ULenJpwkC+PfZQ3nGkSCGmdiUz+6k6RZu2Y/Ibjk05mg2awLixX7N86cc479jEeTN79MQ6ey3rQHnRmCBbQ2bnWnOMsoVeqZ8qr12lT4wKw3QjImtDLK9g9ZNISUrhXmJi3kOeWhdqOwse6OVtkaYmWy2N+71BtfAN7I2JIyw0gZbv9qW2rbwpUH/zOrf0BWN4dBVFS6JUTtlkCMrXU5q/VShbNe1ajmSYWzALNoWwLbE+/fImakWclFGce1krDYj5NyjU8qm/zc07kolFtXCUY1BwiLyVsyirr8XrsXcVTZvyZl1lnjiWUgpJKfdITMx7gE/rUhtn8UC2hnmU2/xTNbZGOdZq0Ig8U6axwVdxXJK82Vaxfs3sr0r2zLLmMbYwKz/iadl8n3Asf0VdYtkzFOP5iGKPA0zs1ErXL46tFxQN2spPdBRib318X6UcU/zepbDmi88Djodewr5VR1qbPHiqwW2AP2v+nwMLhoxlR6Lxa9Ygv54KM7Mbr9OiTNuPsKvjSQ1bEGYWdcU6sAJrzrXmmMLmKt9PldfukzzObLIRUbZJyu0xy9CotR9xq6Yw92QKutSzLF+4g5gTSrZIU5Ot1tWbHq93ouzl82iGrWfLJw3RKpgCcz0bUj9pL4GHksmTHuai0+UUYndNkTcZPrq3j6/s9ZTnbw2FWDVtPRk8sjXHJn1LWuteVIFCrKmWxl85FOeeZYUBUcboKGv5zPXAq3YkGxcdIsFg4MHtO+QJSRWMm4oxMLKjZrrRQsbKKWf1Ncbi9fDGyqZNawJoxBPHskwjWvvFsWrKXE6m6Eg9u5yFO2JkazgrT51s1dAefcWg4rgUplhY/RZ8baG9oj0zyzzGITrIjObYvlPEm3SXktp8H1HMsTxCW58GsnUJmrKOOGSlkCfKvc6t1Gx0OmvGZdkzCosnPMk48s/LT0Zh17fK1vsYeYO24jotxBZbcF+lHD9B71Iy8RaKMDW/YiBxz2S+2+vB51OG5v3W0CAhPX7Dd6LVl2uY1/4cwWFGtWIwYBCPxpVJ9LF9nDItZlB4hyvczF6EzVeGzHMXuN+tP53MVNtKdZAZfYx9p+It39iLNBibLjil6+eZgPMNu4XNVXaeymu3rGzPKBzTh1UdZYyfw9z58/fFzA+ytPq9NvodWiRs4rvxE5m1PYl2n02gTz0sbJFpNWqSfngdmx6ZbN3KkrLre0ZOXkPI6VAO7/6d4KOxVHmxA43tr1maHwf8L+/5XGLBV98TeOo2SXdvcj3Nkbqd3ueDDmmWlsTyDzn6o7LBUVOxCS2rRshcbxhD2z0oxFppIPXiRhYEbOGqfXM6Nsrl0LJ8223nDjTt0NHSqtmwPDbY4FT3Be6e0vLO512pqgGbsjor4mT8wJLpvTv3eI1+Tc3NpGNoqgkp3IAoUmWNjrKWzwZvMu7NGhyf9TmTFp3gQbUK5AlJ++DtImfcbEWvvr1kYuAMj+2ovRk1uDWpJlbOoVQ9+5OF1bdg2AbSj5pbf3vSs6uMabNuLL8XafZ9SrG0KUejF+sRu+k7xk+cxfakdnw2oQ91sLSX1vLM4vCaIM5KPuTJeRcTdN5Aow4N0B1axaLNl9A2a0mVc4Es+f0q9q260cuvnYx9dgx1Y39n8XwZs/Sro3i3tZkNdqgbMVvM7a/tZeyZTdHImJWrHZ1Al4FTuVRjCG82ccqf+JPbfE0M0Z070LRDF6vH8jj0msr4NnYiRKYuPR0rY7g4m//O2MkVqToV4s9wV9uATh8Mom2a8rgwpFv2jK69ZPqhUT8o9ji8qe90inWLHtmp+/GKr7lhWS5fMrZek7ErGLTb16NKFZl12rAzbfTbTO2taTWomX6YdZse3bcG7k3lc9y6U23urS9O73KkQRsfMxPvUKrc3lSwBjt48/ivSjNu8seaxSz6/QzxOZncuxbG/s1LWX60HEPmLOTzNs7k3gljw+J5rLlSlsZNGuBRUQs2zjTq0RouxVGvz0tUjT9J0JJFrD16hzI1G9PE8xo/9hjI1Es1GPJmEx5V8/0rW+TXU9cevNLb17LHeMVbZdru1rkRrjkXCQ46yPU7lwm5VotPvn2PqrfM7NEuDWXqrC6hX3Rh4NRL1BjyJo+XHuamYDmDcXVub1pAwJar2DfvTK+mHWSu707snqXMX7aXWw5e+Hr70q23n+VcC+mnfV/pLbN2m+OwX65nFM5z+op3PZGrZxLiNYiXKzzg/sN0UqKC2Bw3mrnjvMwPVnmalMDoKEVNp3PvGL6NmMezEJKqlA504b/wc8xwJr1RyfylUkFpqcvnNg7VoG09unB++TmG4ZPeoHRWszE6wn/5mZjhkyilS0+R4vaMQv447y8k5wj+P27m3I04DJXcqFnViawUV9p1q21+pMpTpwRGR72EZBCFPm+h8s9CiglhY1RLPuhvXUN5LpSWunxO41AN2lYixRCyMYqWH/T/G2xCJGJCNhLV8gNK89KT40l6huX3iDwLtLVp09qRS1vXsmbDNo5e09PwnTEMaPBMv/ruX4iOO6FbORKZTo6mMvX96vOCtT+5GeI5vfUgl9P1lKnagLZ1rC8ylb8vGmcPfH1rU+H5/MhSNKWlLp/jOLS129Da8RJb165hw7ajXNM35J0xA1DbqRkaZzx8faldaovZGA3OHr741q7wnH5b8OQ8Sc94Th/NqKioqKioqKg8r49mVFRUVFRUVFQK34g8JGrPfGZuuIKePCvovKlrufQk30NTFIZk/pg3lbVmF8+MOsLm3RdI/os/dDXcv8queT+y6nwxHpxQGPOzRSLl4lb+7+cNRJr9qdQTzQkAA8l/zGPq2ksYz+xZ5SIPA/ev7mLej6so9vD/akpF3lVUVFT+OShuRCystH+pFVTOSPmQfdO+YHNKBSr+Jfd8RCEWyEKRG/MzRrpHzIkg/JeEYCp4fNI55aHR2mFfxtaoOJ5VLvJRsEeWDkpB3lVUVFT+QSh2U3Mr7V9qBZUzUupvYegxj4WDCvuGwKdBIRbIwpAb87PGthq+LzXEUvD4hHMCQEOldiOZ8JYPj2f2zHKRj4I9slRQGvKuoqKi8g/C8q9mFKy0eiMraMVES0ujrB1Siid0y0Z27D1IRG4tfGuVRyNnK9XdMTVSoicu7DCnIy9w1EoLoCxyBk8Z66TW3MSabnmMhZnS15moTUZjlrOkGg8l/g8Cps1mXUgcFX2aUKNMNDv9Z7ElyZP23o+esM/mzvFAAs9qcIpay5y1J8l088WrSpm8mFiYEUEkhbBifTptO2ezNSCI85IHfnUs52Rpy8x7I7W0J+u4czyQ1Sdtad7QFU0Jc2FhPC2TUIjpsgBhYo+Usdma7wMMKZzbvIyVW/ZzLjaWa3fsqJy2k/n+m7nj/hINdaEs95/D3vtetPWuiEbOBvr4W7fucXLFTGatOkS0kzfNPTTc2B7A3F0PqeNbhktBeXn3sTnFipmzWHUoGifv5nhobrA9YC67HtahTZ0yytdXUVFRUXmM6c+chmR2jhvOCof+fDL2Vcol/Jn3sYzhHpEHFvHdD9u4oUvhesgyfpg4jQV7o0n/M4roiGVMWpJBz7HjGVR2Ja+98h2ncm7y20dfEt7gXUa+7cSGAW8z66qOm799xJfhDXh35Ns4bRjA27Mucy/yAIu++4FtN/SAgdgNHzF6uwcDx47ldbvlvN77e8Jir/HHku/56udfWXnalpq6nXzycQBRhXyN7P3NE/g1oSeDh76Ky81wYqRsdo7rx2LNe4wdXpODI0az9I75Qw8yx9xOMpvzNS6e3VcwZkMsGz4azXaPgYwd+zp2y1+n9/fhJvIfTbX29HK7wrrD96nqogF7Z9JjdTTu7Pn4GEPCRXbM/Yavf/6V9VdsKXN9Me91/YiN9/SyMQnPv4F4eI7ft93GXhvJgre7MGrTPdPvMsjeybh+i9G8N5bhNQ8yYvRS7hhAuvkbH30ZToN3R/K20wYGvD2Ly/GRHFj0HT9su4G+hLmQbq4wq4tvOXD5D5Z8/xU//7qS07Y10e38hI8Doiy/xtiI7J3j6LdYw3tjh1Pz4AhGL71jOj9DAtv+dzRrHAfw/74cTtUdXzB5+5+4tOiI/cnl7L+lx9b9Rfwy97EuJB4JiZsrJrEkoydjxw+i7MrXeOW7UwXX07jwYr/GJG7aQWx5VzQ4USk7Hae27XCIKqhVjcuL9GucyKYdsZR31YBTJbLTnWjbwa3w66uoqKioPMZkI6JkpUVjZAXVVLawNMrZITNP/ca8m7709XZA4zaClWGr+dDzsoyt1NvESFl8C6DxDEyxMLbay1gn08w3IjLHWJgpv+HdTr0ej1nekhrAfhMNoS11hn3JW3HLWXAyB8Pd3zlVcQDdjNxDmqrN6N7MnQp+A5k4fiyTlvozxH4nmw6elY1JQP4NbMo1Y9CEcYz9ejlLP3ZmR9BhUwOijC0zzaCXtSd7V/OlR0uPvMIoUS7kjKdulK2rYLo0PtUMS5ttmslGRIpcxs/hvgzrUR1bWxeaNq6Z/xGSFm2BApUyeQpU62ygVV7lk4G5BC4NIVu6zbYb7rzRwtG0VoEqr37CwNxAloZkI93exg33N2hRxorrq6ioqKiA+UZEyUoLplZQa+yQLXOSSLmXSJ6YVItLbWdEapKsrdTYSFl8C6AyFsbWBL28ddIEa8yUmFo0FS2pj47Nx/ElPh1VhcBZGwgNuoL7Gy15pFcwJf8mdt5417ZB0sUrxsQUO+p41sDW3FIka8tUsCcbjCyxJcqFfF20Lq9guiwEJZvtI/S3b3JHMjZEF4FVNlA7Wo4chlvwAjaFbCOxfj/yvqjSqFYB7FoycpgbwQs2EbItkfr9amNr1fVVVFRUVDDfiChZaR9h3P+LskOG1W6NX9wqpsw9SYoulbPLF7IjuYGMrTTe9ILFtgCiaCm0MLYeClG0Tj7GKjNlPvn/UJgl1RRb6n3wGZ3Dv+ajiz685S336KcgOzszb6q5t4h+0I5undoox8SETM5duE+3/p0w/lJFeVumhLeMPTneQJ6VkSfLRQHydRGSYcWpJsgbmfNstnlo6zegduRGFh1KwGB4wO07KXmbIk1ZHB2ySMlToHL9VirZOp3VNlBbz8GMbH2MSd+m0bpXlYIXTArBFs/BI2l9bBLfprWmV5VCbKOGZC4cPkWseaGqqKio/Isx2YjY1h6J/6/tOTO2I92HfsnKC3rs40PZe+1PInaEcCPtIocOnONS8BGuZ0awa90pEg1Q5a2ZLBkqWPa6NzV8h3PYpx+d6gzil0XvkO3fkzqe3ZmZ050BjdwZ9Msi3sn2p2cdT7rPzKH7AG9SInYQciONi4cOcTOzCm/8soS3o79nyGffMe2HHbh+PZvBjpHsDLlO+tXD7Lp0jdO7wom5F8GB49c5/ON7vN1/HGvvGc/GgD4hmG8/+i9zftvNvcafMrqHL5272rBmeD9GzbqI1jWJw+v3c+XSHk7cSuXiwX1cy/ayPGZdMIe3Gc/ZYDrmsm/wy5K3if5+CJ99N40fdrjy9ezBVJf7q4+KffhkSH2a9xyAu9zrQNa5IKbPnsuvUzfg+OVshnu4yMekugbbap15u81N5oz7lpkzpnPE9xfmvO3CfaM53XTrTFebNQzvN4pZF7W4Jh1m/cF4qg76hUXvZOPfsw6e3WeS030A3g8i2BFyg7SLhzh0s6z8fRVzEWMyD7m68IvZScj1dK4e3sWla6fZFR7DvYgDHI8xVnencmnPCW6lXuTgvpt4de6KzZrh9Bs1i4taV5IOr+dgbMHhtnVHMfM7L/a/15xmb0zjPOXzC9uZru/25Mqkl+n90UriK7mhvXOEI7fK89bMJQwVy3jduwa+ww/j0++lggs+QuPCa6Pf5sWX+9HeEcAs75mPDnuN0W+/yMv92uMIQBXZ6xvubuGbDyYSdEPdiaioqKg84h/yFe9/J0thGlsnz6XCF5PokveuZYTEjRld6HVrMhfndzX5qxsVa5GImt6Z3jHfEjHvZTWGKioqKqUchZ/J/078TSyF0k1+nzaZaT9OYl/VN+hosQnJQzIYMDyRGlflEXpJwiAKf+5ERUVFRaV08A/YiNji0WEQAzsVfPla6USQnXyLaO1rTPyogexYdXfCOJLiQRObCxyMTDd/WcUKDPFnCEn1oIlNBCGPPjtRUVFRUSm1/EM+mlFRUVFRUVH5O/IP+I2IioqKioqKyt8VdSOioqKioqKi8tww2Yhk3jnPsZAQQkJCOHbsOKGnIohKyCj0S8MsKcUKd5Vi8pCoPfOZueFKod98WjgGkv+Yx9S1l1C/W/QvwHCfq7vm8eOq88XLUWYURzbv5kKy3Oo2zvtflL+HUeyZP5MNV4o16r8hT2MNKWBI5o95U1l76QkyI3tuJlFHNrP7Qt73SJWUh1F7mD9zA0+e4r+o9pSQjcnTxTgmhuQ/mDd1LX/N7eRjlxl1hM27LyC77K2hqHX7hP3IZCPiUNUDhwP/ofvbP7LvVjyx14+x+ote+LUayC8hVhZnqVa4F40hNZlUqyaqgCGV5BJd4K/GQGpyqlW5NMRdZteSGQQcibP4srjioNHaYV/Gtshfv5U49v9CDEkxhG+cw9wDt4u18B/um8YXm1OoUNEyK+Z5tzZ/1mMg7vIulswI4EhcSSrrL+YprGXzWD5dNGjt7Clj+ySZkTn34T6mfbGZlAoVS55rQxyXdy1hRsARipti4z5Qotordv5kYvI0MY+JRoudfRn+qttZxu4h+6Z9weaUCsgseysoet0+aT9CmJER9K6o4jNeHMt59C9Z4sLMl0UV175i8U296cEKSLdniy7u74utWeavlHKkeLHl0y/ExgzzF6xFEvFbPhVfPPkF/nKk+C3i0y82CutGqBeRP7UX9cccENnmLz1tShz7fyuSuD27i3B/f6uwfrnligubA8Wph+b//ohnkHd9pPipfX0x5sBfdocS8rTW8jOI5VMi98JmEahcFMVGH/mTaF9/jChWip9aH3ha+Xu6PFFMnha5F8TmwFOiRBkuct0+ST8SwnbKlClTjDcmuZc38+uhCgz8uAc1bQG0VG1eg9uLprJR6sPIl93QZN7kwJoVrAsO4U9HLxq5O5l4PkwV7qCPO0Hgms3sOXCapMoN8HaxB0Myp7duZH/oKU6dTaacb12qPN6lZXPneCCBZzU4Ra1lztqTZLr54lWlDKCghC+pBr6BHWdmDmXE7AgkewMO7s2pZx9tMU+RfJqtG/cTeuoUZ5PL0azuo6/+NnDv6AyGjphNhGSPwcGdxuWi2LL8KA+crrN+6XmcW9UiaafZ2A3xhG9cwTF9TTL2zWHh7kSqNm+ISxkwmN/LPZPjgYGc1TgRtXYOa09m4ubrRZUyeV+/fiJwDZv3HOB0UmUaeLtgr4snfNNyjj5w4vr6pZyVctj1/0YxO0LC3uCAe/OqxG2XiaWUQGjgSjbtD+Na5CnCtT0Y08cTLXriTgSyZvMeDpxOonIDb/JSqRSTglyuPmlL84YVSQzfyIpjempm7GPOwt0kVm1OwyppHJ1RVOzLkBC+ieVHH+B0fT1LzzvzUuNypjls5I6TkKsrhZoxRoondMtGduw9SERuLXxrlUcjO18d8XJzcCkDKNQ6IMWHsmXjDvYejCC3li+1ymvAYh3JzdHVZJiZNw+wZsU6gkP+xNGrEe5O8CBsJUvj2/Bpf+88SeVjJOJDt7Bxx14ORuRSy7cW5TWgjwvj8OlILhw1HaN83qsT9zh/rmjQEXMkiOAT4YSejkWyySYDZ14op1WcuzFSQiiBKzexP+wakafC0fYYQx9Prcy8jDpK9h3luk+/TPBv69h98DBnH7rhW68See3gHJuXrWTL/nPExl7jjl1l0nbOx3/zHdxfaogudDn+c/Zy36st3hU1ZvdvgN2ZmSZruXm9SmQXNkZzZGPpidYi507YyPZCy9zZJ4azybif+DoTtWk1J22b09BVV0jPtLxWed0djgc+OlcD+jjCDp8m8sLRgv5B4bUuj0RCaCArN+0n7Fokp8K19BjTB0+tWb+VW6uNKnD5F+M+0BD7K0GF9w4XufeEOuhPmPbi5lXj2G5WJ4b4wuKZFxOLnvp4ngbi/whg2ux1hMRVxKdJDcpE78R/1haSPFvjXcn4Vw7yMaked5zA1Sexbd6Qiua5bdUYV51MrcjlUiPXX/LqoWDd6okLO8zpyAscNerduvhwNq44hr5mBvvmLGR3YlWaN3TBPMPWr9vC+lEhmO9MMoIGmv1GRAghksSiXvai7GsrRbr+hlg+bqLYGpsrsq/PET2rtxCTw3ONDxZSTMFvRKS7gWJ4v69ESJoksiMXif5eHcTUk1kiLWi4eG9BvJCkBLF10g9in9EGS4oPFwED6wjX9sPF5Bn+YuqgxsK5xmARlCiJrB0jRN2+i0WSlCTWvOkuus+NEZIUL4I/e0uM3xkr9Po4ETS4lqgz5oDIlqLFrM41xfDtWUKIXHFyYlPhNyFU5Ai9uLF8nJi4NVbkZl8Xc3pWFy0mhwuRtkz0dXlbBGYIIWTnmSSChr8nFsRLQkrYKib9sM942kKINLGsr4t4OzBDCClZXAwaLfycmoihv8wSX4+ZKn5fO9xs7NHiXkSgGNW4vGgxdJqYv2al+KJjNdFx5nWhF2lm99oj4sMDxMA6rqL98Mlihv9UMaixs6gxOEgk5t4VgcP7ia9C0oSUHSkW9fcSHaaGirsXg8RoPyfRZOgvYtbXY8TUnYkibVlf4fJ2oMgQQiGWSWLH2N7io813hT73pljU11V4jjkgsoUk7gYOF/2+ChFpUraIXNRfeHWYKk5mmY/TNCZS4jmx/H0vUf39rSIjOUIEjmosyrcYKqbNXyNWftFRVOs4U1zXiyJj/83+cyJotJ9wajJU/DLrazFm6jbZHMrVlew8jQepvyFWjHhf+F/KEtLdBaLXC+3F9Cs62fmG3lWeg1Kt62+sECPe9xeXsiRxd0Ev8UL76eJKjjVz3Gk8SqG/sVyMm7hVxOZmi+tzeorqLSaL8FxJxMj+BKIXN1aMEO/7XxJZ0l2xoNcLov30K4pjFAp5zzTKX5YQIm3nx6LVu6tFopQlwr70ExXbjBHLj8UpX9cIKWmHGNv7I7H5rl7k3lwk+rp6ijEHshXm9fgs5bqXssSOEXVF38VJQkpaI9507y7mxkhCig8Wn701XuyM1Qt9XJAYXKuOGHMgW0jRs0TnmsNFXjs4KSY29RMTQnMU7m+0lhVjbzw7IxRimS1T15PDc2VqViZ3P50w6yffinUHl4r3vaqL97dmFdIzdZbXmn5JJJ5b/vhcIcn1j5OFr1dZJJG0Y6zo/dFmcVefK24u6itcPceIA9ny/dZy3qZ9wNreIb++jfMnUyfR9wqNp1JMTCpaf0PM61lNdPn1Vl4/SV4v/t+EHeKB8TFKMclMFOeWvy+8qr8vtmZYvlfsjLsuUyvZMrm8IttfLsUZr1uF3p2RLCICR4nG5VuIodPmizUrvxAdq3UUM80SXLx1q9SPCse6T4oMueTqwd7BARG5jmXhD0nav44NJ+zoOqI71XWP9Kzm6Lm85BdCPLrT0lmDvddQxna7S0DAfnIdbDgxfTDjl0TSbNxY2hj98KSp2ozuzdyp4DeQiePHMmmpP0Psd7LpSLasEj73L9DAS7Lz1OFgc4Lpg8ezJLIZ48a2MTnHBE1lGr3SFk+7OnT/aBzfzZvEq11GmY39ARUb96B1LQfq9hnLx4MG8X5PT+Kj/0SPrdm92lG1WXeauVfAb+BExo+dxFL/Idjv3MTBs0v4JcSD7i2d0dh7MXRsN+4GLORM3Vdo62lHne4fMe67eUx6xcVkiLKxjFrG9L2evNPbDVutB5061M/b1eovs+SXEDy6t8RZY4/X0LF0uxtAwP7cQmOicfGlR0sPNICmcmN6tK6FQ90+jP14EIPe74lnfDR/mn2YKBd7t7J1eKWtJ3Z1uvPRuO+YN7GObA5tZepKbp7GnxzrI35j3k1f+no7oHEbwcqw1XzoGSk734Vn6inMQanW93Dqt3nc9O2Lt4MGtxErCVv9IXWirJjjpFeMo0LkumWEP0xi/7oNnLDryoju1VFeehH8Nu8mvn29cdC4MWJlGKs/9FQY434yFPJunD/QE3XsBPdd3KmgccDvRT/K2taiQ+sXFK+b/XhAElHLprPX8x16u9mi9ehEh/paK+alUaz7I9l2NB85j0mdE9m3/SLpmlSS0nKJXPYz4b7D6FHdFluXpjTO+9UuaLUUtIMy5LWDou5v7TEFSAqxlKvr6rosy5q1lcndqFZm/eQb3u3Ui5YeeZlR7JkHT1le60NvXHx7PD5Xf1mufwRw0NG69foYKYpl0/fi+U5v3Gy1eHTqQF6K5futxbzNfoFmbe8oan2DTJ08qFhoPJVisr+goMG2DsO+fIu45Qs4mWPg7u+nqDigG+WNDlGMicYF3x4t8cibnMV7RY+UQMtayZTLpScRMv3Fu5rRulXq3QcdadyjNbUc6tJn7McMGvQ+PT3jiTZJ8JOu2+Jh3UbkwXFCL9nTqmNryqSmkCJVo+2gIQwZMor/TP2eD1ubhN4IibjYBDILPPLUqFmN7PSHlO3rz57ZHYkNGECTl7/iUILcQ0X5XcPOG+/aNkh6eSX8X6GBl2TnWZ2+/nuY3TGWgAFNePmrQybnWGCTp4zX5A9Mbux5WvmCU8rY2iIMBqCc8r0eh8Wb2jYSuvhYEjKzeBzlGjWplp3OQynv/jaPBmCG3Hj0N69zS18QS82j/5LiiE3IpCCVNahZLZv0h2WVx5mPjU3B9WxMJ4utMFg8OCsf+/J517HJH5FCDsvJ1JXcPE3ul5JEyr1EEiUALS61nRGpdxXmKynMQanWH5CUlMK9xMS8hxW1LtR2FqQmWzFHEyRSU1KQqrVl0JAhDBn1H6Z+/yHKSy+FpJR7JOZNCq1LbZxFqsIYH5KjlHeT/Glp3O8NqoVvYG9MHGGhCbR8ty+1bZXm/tDoAU09N6/fQv84dpr8Oi7GvMzqXo+BjOg9BCwIx7Vnb/JSq+f2zTtIxjkqFGvub80xBSitIaW6tqjZ2CSZ3D2w6Cd5vcN8no+DlNczdany1zI6V4pT6h/WrdfH6G9y/Za+oJ89TrH1a9Uca3pHUesb2Tqx7M/WxsQYx5c+ZVSVQGZtCCXoijtvtLQzPUApJjy6v/F/F4xFtlZa5sjkMpUUmf7ywGAUO8XeLeXdN/+foQy2tgKDSRqewrq1AsuNiDCYatoNieyZ/B17PT5nylAPHHxa0ejmPMbN/IP4HB2x++ewJCTD+Awj7GnetT3i6E6O5XnkiUsw8PKrncjatoUrHb5mfXgoU1yDWR9i/jdMguzszLyx5N4i+kE7urXTyCrhcz28no4GXmODjZRLriGdTLcWMvO8w7YtV+jw9XrCQ6fgGrzebMwabGwkcnMNpKfdRzIxxivr7M2XTR4p8vcS2WRn5p2ReyuaB+260alNV9qLo+zMCzL6uAQML79Kp7LmynrQ2Ngg5eZiSE/kwFzL8eR6NqR+0l4CD+X9lZQuNxedLgfsm9O1veDozmPkpTKOBMPLvNopS36cJoiCOcpP1orYZ5heRyGHKRZ19VAx7o8o06g1fnGrmDL3JCm6VM4uX8iO1KYK8y2rMAelWn+Z5q39iFs1hbknU9ClnmX5wh2keCmtI6M5mmCHT6tG3Jw3jpl/xJOji2X/nCUoLr0yjWjtF8eqKXM5maIj9exyFu5IVRhjJ8r7+MrnHUzGpHX1psfrnSh7+TyaYevZ8klDtIpz70TZxwPS4uNbn6S9gRxKNgA6cnN16HKsnJdM3bfThDH/2wNUe+tdmpVN5362QOhy8fCqTeTGRXmb0Ae3uZOS11k1ZR1xyEohrx1c51ZqNjqd0v2N13IW9WWPyST62D5OxZu+O2kVYmmn0Dstajasvkzu4vPCYF4cJv8g0zNfaqZ4rUfn2jcvrH8YXd6IzOhj7DsVb/qXQFoffOsnsTfwUN6fh+pyydXpyLF6repM+kDafcmK3qHUVw0F+Us8wFyLOskiW68cz0JjYoxtPT74rDPhX3/ERZ+38DZ3dyjFJP9l4/sb/7dsrYTVlsllMo1k+ku8gYLYKfbuQhL8mBKuWysxeVg14+YfrFm8iN/PxJOTeY9rYfvZvHQ5R8sNYc7Cz2njbAOODWjjk0zw9Al8+cNvnHlhCF8Ma0j5RxsmQyoXNy4gYMtV7Jt3ZsBr/Wh4bxU/LQzjdvRJLjkNYsqYpmhCfmTU7HPkZCRwz6YF73zQkVoOj0YiSD2+goD9seRm3eXs7qNIb03h8zZVcNJFsmrabLZdvU85bQJHwu/T4M1xvFnjOLM+n8SiEw+oViGO03RlTB9vXAwXmf3fGey8IlG9Qjxn7mpp0Opl+vZqRHLwdCZ8+QO/nXmBIV8Mo54z3N7jz+K9OXj3HsXg1qmm8xxak7M/jWL2uRwyEu5h0+Iderar9WjQgC3i9h78F+8lp35zKkcEsigonAyPtnRo6s4LuZZjr1nrIYfXbCTCxo+O9TPYt2oJO26Vp12XptyZ97HpvdqU5/iKAPbH5pJ19yy7j0q8NeVz2tRoRPuG91j100LCbkdz8pITg6aMps6fW1i8MIjwDA/admiKm5MNtuI2e/wXszfHh94vGtg63SyWA/6X93wuseCr7wk8dZukuze5nuZI3Rc789qrTbi36icWht0m+uQlnAZNYUxTDSE/KsfEkHKBDQsC+P2qPa1auxIRtJigCBv8OtYnY98qluy4Rfl2Xelat0Khsf9Pf8G+JQsJCs/Ao20Hmrq50LCNj1kOh1L17E9mddUJb41l3H26dsMn/4Eym3KNeLFeLJu+G8/EWdtJavcZE3rXp0n7hpbzrRvL74vny86h7yu9ZWq9BW6NX6Re7Ca+Gz+RWduTaPfZBHrXb2KxjiznaPoQuGODNvgkBzN9wpf88NsZXhjyBUOr32bTggC2XLWneecOeFfJ/4nMphyNXqxH7KbvGD9xFtuT2vHZhN7UbdJeZozNqVipCS2rRljk3dPLkXOBS/Ly160DlUKnM3LyGkJOh3J49+8EH42lyovt8X2xg+x1nR9PQEPFJi2pGrGAr74P5NTtJO7evE6aY106DRtKuwem8xrWsHzB3EWqfN1XcUIXuYpps7dx9X45tAlHCL/fgDfHvUmN47P4fNIiTjyoRoW409B1DH28XTBcnM1/Z+zkilSdCvFnuKttQKcPBtE2zfz+zvBoLXt3oWe/HjQ0i/2wuqF80WUgUy/VYMibTXB6NNOK8rGs22kYQ9s9MOudPmDeC4e/Qu+OZrkb347U7YtZ+LifVCMnYgMLAn7nqn0runWsC+EyPbOtB74WddALh6tG5/Z8lb5NzPvHGJpzlS2ytd4BQ0B/Bk69RI0hb9KkYOI0aVmViAVf8X3gKW4n3eXm9TQc63ZizNB2VqzVjtRyEo/7QP1mzpxZs7CI3tGNPm7xMuu7J94P9uXlz6c3Lxq2Mt24TtJqUDP9MOs2KcRTKSYFBf0Yh3o1SdkVQ7tvhtLYfKOiFBNPL6qcCyTg96vYt3iRmhFBRrl1w8lJ5n32g1a0aW2eyz7Ub2bZX3o5Xi3ou9168mpfmd7dHK5uWcz8oAhs/DpSP2Mfq5bs4Fb5dnR9yRNnW4q9bhX7URGUUteMxI0ZXeh1azIX53ctpsr9H6yBl24wo0svbk2+yPyu/6iZqfwt0BO5eiYhXoN4ucID7j9MJyUqiM1xo5k7zsv84KdHSepeimJ6597EfBvBvJeLea416ML55ecYhk96g+cr/y5Jz3wSdIT/8jMxwyfxxvOd+PMnbSuT51bgi0ldUJCqqxSB5UczpQTJYMAgKT0VVTj/XA28hMFg4AnDoqJSMnKO4P/jZs7diMNQyY2aVZ3ISnGlXbfa5kc+ZUpS93okycBf0g6kGEI2RtHyg/7PeROSR0l6ZvGQiAnZSFTLD+hfGib+nJBu/s60ydP4cdI+qr7RUd2ElIBSuRHR3QnjSIoHTWwucDAy3fzlQvnnauB13Ak7QopHE2wuHKSYYVFRKTn2Xfhu5ae4HJ3DF2PGMMH/EDY9PmWQr3W/fn0ySlL3BuLPhJDq0QSbiBCeejuw9aDDoIF0cjd/MODZU5KeWXxs8egwiIGd3PP/OvFfisgm+VY02tcm8lGDf3UkSkwp/WhGRUVFRUVF5d9AqfyNiIqKioqKisq/g0I2Ik/BGvkMbIYmPIX7GVKuEXYsz0AcciycG2l5Hy4/jD6bbyY+zuUEeeHPM+MpzPOv4ymaW43mKaVcZOv//cyGyOcc+5KScZODi6eyLOyJIqKiUijmdlXD/avsmvcjq0qDCr0oc+uzxmQ8z7NXFXLv0hazvwjFjciTWyON7a4lsxkW38ZasvsBaJxrUCN+KYO7jmDdg5q4V8i7lmP1Ghi2T2L66Yq4V3nenweWfJ5/FeZ1Y2mANKNQQ+ajeQruxZwgyH8JIXF/5wVpICUmgt/n/8KOG3/neRhRaP5UiqL4Pa4wzO2qBpJiwtk4Zy4HnrsKvWhz67PFcjzPs1fJ39tyjP9UFGOuqd6Cni2K/zCSISGYKTMO5n21s6YS7UZO4C0fq9U3BRgSCJ4yg4PGX6lbFCW53yNsHanm64ObXQ0aNHHFIT9CGnsX/Bo2o1HzejiX4PJPhacxz78I07rRUKndSCa85aMgPzKQEDyFGUpJfjxPe6r5vkTDqpZ/w//3QkPlBt1oWau4q6q0UkT+VArnSXpcYehvYegxj4WDaj9ef66NOuHnptjmnyEaqrfoSYtS8GBvHubjeZ69Sune5mP852Jh31W0RprbamXsiY7VYlk2bESB3bWhPVeCHtkM9comR3ODZh09J8xsrFXjtvPbut0cPHyWh26+1KukRVcie6IyIvUYyxfewHfsUF58/E1tkHN+LyGVutGt+j1FY648csZEc2NkPSoZEji9ZRlHMj2RQuYTsOU6jo0aoz2/hvlLdnC7kh++1RzybaRFzFOnbPVFJpdlEiztj5XvFW1TfYxs3ZiaWzGx9DpSI3ZZ4bZi43y+kELIivWkt+1M9tYAgs5LePjVJvvsaubJGJZbO19g4bTZrAuJo6JPE2qUiWan/yy2JHnS3tveYv6yIlVd0floJCJYPc+fzXfceamhjtDl/szZex+vtt5UlDGoltfouRD4K1cbDKX2hQUs3p1ItWYN8vIil0cMJJ/eysb9oZw6dZbkcr7ULdBUF1BqDbXCuvE/pjhWUwNx4fL5b+vtWIit1ZzSa/uWK0t5c7m8XRXxgLCVS4lv8yn981ToMjUmg0I9VUoKL6TeLfuKk42yudXSPi0/X1m7t8W5RZurHyE/Hr2JrbbwXuWCW+pBfjO+V72cgp5czF7V1tuBuyamXKUxWme4BuX8WWtqP+/cisauptsiQ5xS7j3JPm3tWlPARIGnZI1UsNXK2RML7K6SieFRUrQnypgRYyRTG2vWDjGibl+xOEkSSWveFO7d54qYXHNj4RPYExXQX58m2pZ7Wcy5a+JoFWm/jRNf/JElkhWNuXLImDSnX5ExRkaL5EtbxCfNHEWr0YvF2uBg8euA2qJW3y+F/7LNYvPP/YRHk69EeK5pXOXnGSruKo5RJpff7LewP26/sK5Im+pjFOrG1NwqZ+ktzFZslk/9FfFjWzfRYeR3Ypb/d2KQXyVRa+hGkZhbiGF5Xk9Rrcuv4laeGlOs/38TxI4HMvOfHG4+IyGEJFKtzEf0rM6i5vDtIk/qOlE09ZsgQnPk8y5Ehlj5mrNoNSpArAneJCZ3dRddfr0p9LJ5PCmy0oLE8PcWiHhJEglbJ4kfjDXVRmMttYbaJGvGb4ZVVtN8FAzbWYr9xvwCpdn2La/3tey7CnbVLCGEFCNmd3EvpFfI9cTC6qmQepeZo5K51fr5yvQNmXOLMlc/Qmk8xqbfonqVlHzR7F7bTXtyMXtVlpnhWnGMVhiu82epnL9imNotkc/98Tjr15oSJj+aKFkjn8yeqDExPCrbE2XMiPkPiD7Grjkj502ic+I+tl9MR5OaRBrmxsInsCcqobFFI+P8MBhAo9FQWdGYK4OsBbW+jDHyARUa9qBNbXvc2g1i4Kuv8uFrTciw92PEB6/z+rA+NEyIJkZvGlf5eS7kTD2FMcrl0q2sWSy/pNaWX4uwqRagVDem5lZzm7CZudjCQGmaT8j72vJmgyYwbuzXLF/6Mc47gjicrWBYxpY6w77krbjlLDiZg+Hu75yqOIBujjLzNzMv56GholX5AK3WtuAnuTLavF+LK+QdABtbanYayqBXX+Pdlz2IvRVDjmweA9if64DNiekMHr+EyGbjGGuuKAUozYZanTXjN8Maq+lj5POv3G+MTs1H0Vz73G3f8ipTi75rq2BXNWt28r1CricWVk8K9S47xywFc2tx5mvZN+TOLdxc/Qglk2zxepWmciOze/Ux6clQvF5lem+lMSrZveV6snL+ntTU/gi53BdnrSlhshFRskY+uT3R1A4pb09UMCMaY8ggek8AC8Jd6dnbF+dHm4SnYE+Uw7ZcecqRzv0044FIpN4XVHDW5N+n4JUCY64MshbUB4rGSGPbpMbWyIGq1aARj8yI1sxTYYwKuTSNpTU21QIU68ZkPoXYhB9RSD7NsavjSQ3bIpRNji/x6agqBM7aQGjQFdzfaImd0vwVsC4fMijk3RytrS0GvYReKY9l++K/ZzYdYwMY0ORlvjqUYHYFM/IHWGoMtdWLOf58irSaWoF8vymMx8ErJbZv+a2XRd+NVTZFG6PcK0wOM8WinhSQnWMLBXNrceZr2TeUzrVRNFc/Qskkm0dxepXlvUrWqwrurTTG4vXkx5jl70lN7UVR/LVmislGRMkaab3pVGdkd00jT55orBc0vls+OjmDZhbZhgILY+KBuXx7oBpvvduMsun3yRYCXVY2erPLgzX2RAPJFw5zKraQ9FVuQzuf2xw9fKcgydlX2BpRjrb5O2jz2yoia0GNUTBG6guMiUVR5DwVxqiQS0xiaY1NtQDFugGj+cjZhAuzFT863fwf8sg8d4H73frTyVHBsAyALfU++IzO4V/z0UUf3vK2LXT+8hSVDw1lHR3ISkkmE4mE67dIzdahk817fN71ZC6omMesbWy50oGv14cTOsWV4PWFjLU0GmrvyIw/M5pj+05hJq01pSir6SOUDNsUZ5ECcuba5277lleZWvTd8MaF2FULUKwxuUWNQj05KNS77BxDFcytCnZZ2fla9g3lc4taq0om2UevF6dXydxLbmFb3aseXU9pjMXrySCfv+KY2i1RyD3FXWuWmDysqmiNfLEz/Xv7WmVP9LR/ZHetTzPnM6xZmG8zbKLn8AoZk2P7fnTQbTUzaPrQtac3D/blWRh9er+IYet0Zm+7yv1yWhKOhHPfqxXVLwexWMlGqWRPLH+XtaP783+ZfRjapoppNB6hqUardi6Ez53K0gNhHD+wnU2/R1B79Fe84eHA/StbWDw/yNKY2/UlPPOUhQXIWlD7UAdLI2wtzywOrwnirOTDS43h2JrFBJ030KhDA3SHVrFo8yW0LV7GN2c/S4uYZ93Y3xXG2IPePc3Mw//pT86+JSb2R5eG8pZWGfmkYt2YmFtfbkZcwP+YWXo9C7EVm+WzUwNcci4SHHSQ63cuE3KtFp98OwRvR3sqyxqW21C3ki041KNmyi5i2n3D0MZlAUcaWFh7h1HP6KHkRzyMDGbR/A1F5KMb3dtUJHL2f5mx8wpS9QrEn7mLtmEXPh7YysJ66nR9M4sCNhKh8aVDvQz2rV7CjlsVaN/vI95rm2yRx6aaEH4cNZtzORkk3LOhxTsf0K5AU11AKTXUDq15lp/Mxt/i2jd0GTiVSzWG8OZjdaslhVpNH2Mnn39vZ84HLbTsN+260tXT2ewapdT2bWw1f4yB9KPm5vKe9OwqY4puXp60ixtZELCFq/bN6dzjNfo1tewVckZZxXqqrMGusoGL5vXeoBMfDWprNscPaNm+lay59cXO/entW4jF/RGGdI6a27279rIw0xZlrs5D2STbsn4O+5fm22qL6FVZ7m4kHVjDxsf3KkvqhSfvVd71nTi1blG+KbcTrTq3lR1jp/c/oEOadT1ZMX/FMLXLIZt7j0ok71tt5VpTwPyhERWVfxap4vdvpoqDec9T/nPRR4mfX6onPt5vxcOg5uivi2kd6uc9RPiMyDk5U0zdmGL+z6ak/i6+mXpQ/PWp04uon18S9T7eL4ofAb24Pq2DqD/mwBOcW4opST2pPH/+Zvkr7O/oVFT+vkg3+X3aZKb9OIl9Vd+g4z9ejVlKDbUySDEhbIxqyQcK6lbpOVhNS2Ku/WfavktSTyrPn79X/tSNiMo/FEF28i2ita8x8aMGxf5ivr8XpdhQK4OtRwcGDeyE4vc0PWOraUnMtf9M23dJ6knl+fP3y59q31VRUVFRUVF5bqi/EVFRUVFRUVF5bvzlGxFD8h/Mm7qWUimKVVFRUVFRUXmu/OUbETRa7OzLUApFsSoqKioqKirPGfUZERUVFRUVFZXnhox9N57QLRvZsfcgEbm18K1VHo2cgdJKU2z2neMErj6JbfOG5IliZeyBhZlirbIsVibuRCBrNu/hgLF5UkVFRUVFRaVUY/qBiXST3z76kvAG7zLybSc2DHibWVclsneOo99iDe+NHU7NgyMYvfQ2KVEnWPHjRH5dGsyVsj5UOvst7wz7mqCr5ahfLoyJw37mlO4ekQcW8d0P27ihB0PsBj4avR2PgWMZ+7ody1/vzffhmaRc+4Ml33/Fz7+u5LRtTXQ7P+HjgCgk6SYrJi0ho+dYxg8qy8rXXuHbA1cIWfYDE6ctYG90On9G3SZ2w0eM3u7BwLFjed1uOa/3/p5wSxOQioqKioqKSinDVHoX8RvzbvrS19sBjdsIVoat5sP6tjIGygfWmWINLvj2aEmelFDJHngQRwWbbY41lsUva1llnlRRUVFRUVEpfZhsRKSUJFLuJZInDNXiUtsZ8cAga6DEWjOpzSMLbGH2QHlTrFWWRSnOKvOkioqKioqKSunDZCNSplFr/OJWMWXuSVJ0qZxdvpAd8dmyBsrimGLz9i2F2wPlrmOVZdG+ubJ50pDMhcOnKEy0q6KioqKiovL8MNmIaKoO4pdF75Dt35M6nt2ZmdOdAQ0c8OrcFZs1w+k3ahYXta4kHV7PjpDdHInM4tqRrVy4GcG2I9d5eO0IOyJucHbrUaIeXOHIvlOc3BHCjbSLHDp0kypv/MKSt6P5fshnfDftB3a4fs3swdVJv7KTkOvpXD28i0vXTrMrPIZ7EQc4nvEaM5cMRSx7He8avgw/7ENf32iCj1wnM2IX604lYqAKb/yyhLejv2fIZ98x7YcduH49m8HVNRjubuGbDyYSdEPdiaioqKioqJRG1D/fVVFRUVFRUXluqF8zpqKioqKiovLcUDciKioqKioqKs8NdSOioqKioqKi8txQNyIqKioqKioqzw2TjUjmnfMcCwkhJCSEY8eOE3oqgqiEDAzGBxWJgftXdzHvx1Wc15u/9rwxkPzHPKauvUTxZcAlOddKDPe5umseP646T6kJndmYDPevsmvej6x6lsktjXF5VhiS+WPeVNb+y/XVD6P2MH/mBq48tQJ48j6VGXWEzbsvkCzTGI3H+bczj1u5zp5+Lp6EkvTjkpxbDKyM51NDSuHi1v/j5w2RPLW/EzWkcC3sGCEhIYSEHCP8RlrefuBhNGeP5e0Vjl9OKPH9TDYiDlU9cDjwH7q//SP7bsUTe/0Yq7/ohV+rgfwSkmzdhsSQREz4RubMPcDtZxL94qHR2mFfxvaJfhVUknOtwZAUQ/jGOcw9cPvZFK4VmI7JQFJMOBvnzOXAM0xuaYyL9RhITU61bu3IokFrZ0+ZIvXVJb1PKcYQx+VdS5gRcIS4kna8Rzxxn3rIvmlfsDmlAhXNU2I+ztJmHjekkpyqXCFWrTPzOT5HStKPS3KutVgVz6eIdC+GE0H+LAmJe3r30zhTo0Y8Swd3ZcS6B9R0r5AXM8fq1DBsZ9L001R0r4Kt+XnFxPR7ROwq0aBRbZycG9Hj7QEMGDiaKSv2se7dRH56YxjLbllReRpXGnXyw+2vzPATo6FSu5FMeMsHrflLRVKSc61D49qITn5uf+niKC6mY9Lg2qgTfs84uaUxLtZiSAhmyoyDPLFwQFOJdiMn8JZP4VVX4vuUZjTVadGzBe4l7XbGPGmf0t/C0GMeCwfVtmy+ZuPUVGrHyAlvUUTqnhEGEoKnMOOgcoVYtc7+ilw8ESXpxyU513qsiudTxLaaLy81rFrwDedPBVscq/ni42ZHjQZNcHXIn43GHhe/hjRr1Jx6ziWPooV9N/fyZn49VIGBH/egpi2AlqrNa3B70VQ2Sn0Y+bIbGgsjrpPJ5MWDMFYujafNp/3x1sqYe7UGkk9vZeP+UE6dOktyOV/qVilIV/ad4wQGnkXjFMXaOWs5memGr1cVyujiCd+0nKMPnLi+finnnVvRuPI9TgSuYfOeA5xOqkwD7yo8OLmCmbNWcSjaCe/mHmhubCdg7i4e1vGlzKUgVp+0pXlDV/Tx4WxccQx9zQz2zVnI7sSqNG/oQhlAig9ly8Yd7D0YQW4tX2qV13HneODjc2WNxEXMC9lzjF5G8CBsJUvj2/Bpf2+06ZcJ/m0duw8e5uxDN3zrVUJrSOb01o3sDz3FqbPJlPOti8ktAEPKOTYvW8mW/eeIjb3GHbvKpO2cj//mO7i/1BBd6HL85+zlvldbvCtqyLx5gDUr1hEc8ieOXo1wdzLJpumYxAPCVi4lvs2n9PfWytiRnbBBR8yRIIJPhBN6OhbJJpsMnHlBXLOYj6GQHCiOAb2sbdmQfJqtG/cTeuoUZ5PL0axulYJLZN/heGAgZzVORK2dw9qTmbj5elGlDCAX5yeIo3ksGtidYebQEcyOkLA3OODevB720eaxFoXXTPYdjgeu5qRtcxpWTJS1VFdJO8qMIu+TS7yFtbocNw+sYcW6YEL+dMSrkTtOQqa+MuTjY4wu5ghBwScIDz1NrGRDdnoC13evYJ5CrNIvB/Pbut0cPHyWh26+1KtkkBlfFRJCA1m5aT9h1yI5Fa6lx5g+eMr1FINMb3A1GqVMnWLSp4xnI7f+NXnfBh12mNORFzhqYvmWZMdZPc7UPG4RowxwfqEcWn2cWQ9zwUQeXljtKpxruhYcqRG7jKEjZhMh2WNwcKd51Ti2W+TUfJ0ZIz9HT22mZQ0ZtQ+lXi7iw9m0/CgPnK6zful5nFs1pvI9czN7Ge5Z1csrkhi+kRXH9NTM2MechbtJrNqchi5lAIn40C1s3LGXgxG51PKtRXlNtmkvV1j/ABji+SNgGrPXhRBX0YcmNcoQvdOfWVuS8GztTSWjpWrZR1GIp454xfHKG+p1CafZsuwImZ4SIfMD2HLdkUaNtZxfM58lO25Tyc+Xag6CpJAVrE9vS+fsrQQEnUfy8KOO7NqSWftKOxiRyrHlC7nhO5ahL5YveK/POc/ekEp061YLyao+XgjCjIyggaKKz3hxLMf4X5PEol72ouxrK0W6/oZYPm6i2BqbK7KvzxE9q7cQk8NzjQ8WUsxs0cX9fbE1S4isHSNE3b6LRZKUJNa86S66z40RUlqQGP7eAhEvSSJh6yTxw75so5PjRXjAQFHHtb0YPnmG8J86SDR2riEGB8WLexeDxGg/J9Fk6C9i1tdjxNTtF0Tg8H7iq5A0IWVHikX9vUSHqSdFlkgSGwd7iBbfnBO5QgiRFCSmzgwTGYnnxPL3vUT197eKLClZRASOEo3LtxBDp80Xa1Z+ITpW6yhmXtcL/Y0VYsT7/uJSliTuLuglXmg/XVyKMzpXPMG8lM4xOUISMbO7CPf3t4oskSV2jKgr+i5OElLSGvGme3cxN0YSaUHDxXsL4oUkJYitk34QZrcQUnyw+Oyt8WJnrF7o44LE4Fp1xJgD2UKKniU61xwutmcJIXJPiolN/cSE0Byhv7FcjJu4VcTmZovrc3qK6i0mC9N0Go9JCCHFiNld3MX7W7OEUKiFtJ0fi1bvrhaJUpYI+9JPVGwzRiw/dstyPtH3FHNgivEYJHE3cLjo91WISJOyReSi/sKrw1RxMitNBA1/TyyIl4SUsFVM+mGfyfnx4QFiYB1X0X74ZDHDf6oY1NhZ1BgcJBIl+TgXN46KsVjWV7i8HSgyhJCPdVJhNSOJxHPLxfte1cX7WzNEckSgGNW4vGgxdJqYv2al+KJjNdFx5nWhF6LI+4QlXBRBo/2EU5Oh4pdZX4sxU7eJG8vHiYlbY0Vu9nUxp2d10WJyuEx9ycfHhLSd4uNW74rViZLICvtS+FVsI8YsPybu3lSIVdYOMaJuX7E4SRJJa94U7t3niuh75uPbLpJ2jBW9P9os7upzxc1FfYWr5xhxIFtuHUVb9oadiQXjU8iNcZ8yRm79X9Er1Z0kP87MRHFu+fvCq3r+9RViFJd7V6GHPaKQ2lU8V24tpIllfV3E24EZQij0Fou1bjQG2Tlm62VrqOA0hV4eGCkuBI0Wfk5NxNBfZomvx0wV2y+sE8P7fSVC0iSRHblI9PfqIKaezBLCil6ekRwhAkc1FuVbDBXT5q8RK7/oKKp1nCmu6/XixooR4n3/SyJLuisW9HpBtJ9+RUjG7wOKsShAf2Oe6Fmti/j1Vt6/J6//f2LCjgdmx1iuufBc+XhKiuMVQrobaBmH0DhxacsnopljKzF68VoRHPyrGFC7luj7pb9Ytnmz+Lmfh2jyVbjIFXpx5ce2wq3DSPHdLH/x3SA/UanWULEh8oJVa18R/XUxrW058fKcu6bvV2m/iXFf/CFyCnkvtRbrfmtkyCVXD/YODggZI2513SPjnCWW5t40DLYO2JyYzuDxS4hsNo6xbYz2/5qqNOveDPcKfgycOJ6xk5biP8SenZuO4tjoFdp62lGn+0eM+24eX9bawi8hHnRv6YzG3ouhY7txNyCA/dlVePWTgeQGLiUkW+L2thu4v9ECRxdferT0yPtVmaYyjXu0ppZDXfqM/ZhBg96np2c80X9mE/HbPG769sXbQYPbiJWErf4Q72pG5z7JvJTOMTnCGDuaj5zHpM6J7Nt+kXRNKklpBmwdbDgxfTDjl0TSbNxYTG8hEbnsZ8J9h9Gjui22Lk1pnPdrLdBqsX28lS2D1jb/+HXLCH+YxP51Gzhh15UR3atTSDpNkGRrIZ2oYye47+JOBY0Dfi/6Uda2Fh1ae1jO50FFhRwU8gmn/rKCbTkXB5sTTB88niWRzRg3to3RSRqqNutOM/cK+A2cyPixk1jqPwT7nZs4ki0X59xixlEpFsaBVIi1rrCa0eDi24OWHhpAQ2UFS7VptOTvoy/byNRaPbEO65aF8zBpP+s2nMCu6wi6V9fJ1JdcfEyrVh91jBP3XXCvoMHB70X8ytpSq0NrqtnJxwq75oycN4nOifvYfjEdTWoSDyqaj68+y6bvxfOd3rjZavHo1IH6+T9SWq6jB1Q06w2TXnF5dGMrcmOMXnb91xcKdbfnkvw4NcbmceUYvXB1iUIPezQe5do9eFbpXNtC1gKKvUURKUp+jlKkbA09RqmXb7lA3Vfa4mlXh+4fjeO7eV9Sa8uvMmb2/WRTdC/XVG5Mj9a1cKjbh7EfD2LQ+z3xjI/mz+wIfpt3E9++3jho3BixMozVH9ZHY/w+YEUsbOsM48u34li+4CQ5hrv8fqoiA7qVNzpCfs0plZjiePUKhvqFp6jTow217d1oN2ggr776Ia81ycDebwQfvP46w/o0JCE6Jr8P2FCu2SAmjBvL18uX8rHzDjadr2vV2ldGg63mseu2AIMBNJpC3ksL6eNmWLcReXCc0Ev2tOrYmjIKRlwlZM295friv2c2HWMDGNDkZb46lGB+GkD+r4Ds8PaujY2kB2zyzLuavFekuFgSMrMoEO/WpFp2Og8lsGs5kmFuwSzYFMK2xPr0q53XBY2NwRj/N2WwtRUYDBIpSSncS0zMexJY60JtZ8EDg+m5TzIv2XMUMZARvYeABeG49uxNwS382TO7I7EBA2jy8lccSjBeNHpu37yDZKwyLhSJ1JQUpGptGTRkCENG/Yep339IIek0Qd6OXInG/d6gWvgG9sbEERaaQMt3+1LbVn4+8jkwuY0pirblsvT138PsjrEEDGjCy18dMjsxn/yb2Xl7U9tGQi8b5+LGUSkWps1KNtbVC6+ZRzVf8N8FrzyyVJuicJ/y+fX72FqdSkqKRLW2gxgyZAij/jOV7z9sLVNfepn4mN5R27gfb1QLZ8PeGOLCQklo+S5989ebLIYMovcEsCDclZ69fXHOl1iajE9/k+u39AXz1TxOncI6Mu0NxhSdG2MU1n+uQt09uKE4zgLzuHKMCuthFpjVri5e6dxyRawFuZo3O8QYpVwo1JAceaca9XKbvHzlpaswM7t1vbxgjQBlbLEVBgxSCkkp90jM08mjdamNs3hgdq41sXDkpU9HUSVwFhtCg7ji/gYt7YxfV15zSsiOt9A4GPcBDbZGda7VaBDCYPlDrV0dPGvYgrBu7StiW47y5SD9fpqJnFZKvY+o4Jy3iShuHzfDciMiDKYmXEMieyZ/x16Pz5ky1AMHRSOuHDp5c2/s72y50oGv14cTOsWV4PUh5icisrPJFAC53Ip+QLtu7XDgscoXAPvmXWkvjrIzT+eLPi4Bw8uv0qksYOvJ4JGtOTbpW9Ja96LgaQFjY7BFxQFlaNTaj7hVU5h7MgVd6lmWL9xBvAGjc59kXgrnZCvsGnVhzP/2ANXeepdmZdO5ny0Quixif9/ClQ5fsz48lCmuwawPMd7JaqnfoDaRGxdxKMGA4cFt7qTkVYOmrCMOWSkkZ4KUcJ1bqdnodHb4tGrEzXnjmPlHPDm6WPbPWYJiOs1QsiNrXb3p8Xonyl4+j2bYerZ80hCtwnyy9XI5KARF23IW27ZcocPX6wkPnYJr8HrzM0Fkk51XVOTeiuZBu26008iNKxcPr+LEUTkWGhsbpNxcDOmZuLWQifWdbYXUTD5GNa8UrSLvk4Fp7dv50KrRTeaNm8kf8TnoYvczZ0kIKdvM6utQiEx8sjApW60r3j1ep1PZy5zXDGP9lk9oqFWOlS5sPt8eqMZb7zajbPp9soVAl5WN3nh8Wh986yexN/BQ3p/J6nLJ1enIKWwdWb6DQCF1Ko/C+i+jUHdd/BTGmcfjISnEqNAeZoxM7XZqo3Ruisxa0GBjI5GbayA98QBzi8qpMUq5UKghc5R6eUG6CjezW9XL5VJfphGt/eJYNWUuJ1N0pJ5dzsId8fkv5p+r2JdML2Vb7wM+6xzO1x9dxOctb7MHlZ+gj8qNt6g4KNS3IpnnuHC/G/07OVi19pVt9ZVp086H20cPc+fxa9lc2RpBubb18599KebYzDB5WDXj5h+sWbyI38/Ek5N5j2th+9m8dDlHyw1hzsLPaeNsA44NaOOTTPD0CXz5w2+ceWEIXwxrSPlH2yFDKhc3LiBgy1Xsm3fh9dpJrJo2m21X71NOm8CR8Pt4tbFn0wR/zuVkkHDPhhbvfEC7Wg6PByVSj7MiYD+xuVncPbubo9JbTPn8RTRXNrN4YRDhGR607dAUN5eGtG94j1U/LSTsdjQnLzkxaMoYmjvbADY41X2Bu6e0vPN5V6pqwJBygQ0LAvj9qj2tujVBf3gF84MisPHrSP2MfaxasoNb5dvz2uh3aJGwie/GT2TW9iTafTaBXo5Xjc7thK/TzWLOy4ayukiLc3y6dsMn/4knQ+pFNi4IYMtVe5p36U7tpECmzd7G1fvl0CYcIfy+F23sNzHB/xw5GQncs2nBOx90pCB0Gir7NsYpZBafT1rEiQfVqBB3GrqOoY+3C4aLs/nvjJ1ckapTIf4Md7UN6PTBINqmBTN9wpf88NsZXhjyBcMaFjyQZDKmzu1wjQtmQcAWrto3p3OP/vTxM68FH3J2f8/IyWsIOR3K4d2/E3w0liqtu1IzdrXZfGpS6+Fh1mw0z0E7ur7kiXP+ajcdQw9e69eUe6t+YmHYbaJPXsJp0BTGNNUQ8uMoZp/LISPhHjYt3qFnu1qPAgMileMrAtgfm0vW3bPsPirx1pTPaVPFCV3kKrNxNeDNcW9S47j1cWz1cl96NTKPRUOcuc0e/8XszfGm96jBtE41jfXQmmf5adRshZoxkHJhAwsCfueqfStau0YQtDiICBs/OtbPYN+qJey4VZ52XV+iboU/C7+PWwxbFi8kKDwDj7YdaOrmQsM2PiQHT2fClz/w25kXGPLFUKqe/YlRs43rqwfVbpvHx4eu3XweP6hnSN7F9yMnsybkNKGHd/N78FFiq7xI+4a1EDKxerFLDRLXTmP2tqvcL6cl4Ug4aTVqkn54HZseja+GO01bViViwVd8H3iK20l3uXk9Dce6rXml9j2zdZRGjZrpHF63qaA3GD95J9ezhlbn9qZHfaozvbwfvb3ZUK7Ri9SLNV3/vWtUpEH7hpZ117KW/Dg9vahyLpCA369i36obPSqFysfI90U6KPawfJRqt0Yj+f5X/iFHLdaCJ+L2HvwX7yXHpzcvGrYy3SynXVroObDo0TrrgHeV/B/7NRVpIjfHup0YM7SdWQ0No97jNwOFXv6pD3G/L2ZhUDgZHm3p0NQNl4btaXhvFT8tDON29EkuOQ1iypjm5IWhiF7e2pWIoMUERdjg17E+GftWsWTHLcq3f41P32lB7KbvGD9xFtuT2vHZhN5Ue2h0bvceeCSuL7S+83CgXs0UdsW045uhjfM2BkY4NmiDT7LZmqt+m02P+5ZRPO9fYcvi+ZbjbdeVvq/0lomDF/HbFjF/w1kkn5dozDHWLA7ivKERHRroOLRqEZsvaWnRrTONXHO4GBzEwet3uBxyjVqffMt7VW9ZsfaHUef+Okb3/z8y+7xHG5O/gNBQrVU7XMLnMnXpAcKOH2D7pt+JqD2ar97wwIH7XNmyWOa91LSPF0aptO9KN2bQpdctJl+cT1fTxyxUioMUxfTOvYn5NoJ5Lz+rQOqJXD2TEK9BvFzhAfcfppMSFcTmuNHMHedlfvCzQ7rBjC69uDX5IvOLW1TPJY5/H/SRq5kZ4sWglyvw4P5D0lOiCNocx+j/G4eXFU3o30CJYlSS2n3O/JN6edrWycyt8AWTujiav6RSQiw/mikNSAYMBunpfSnLvxY9kmRAFOOzuhKTcwT/Hzdz7kYchkpu1KzqRFaKK+261TY/8hkjYTAYkJ6oqJ5DHP825HDE/0c2n7tBnKESbjWr4pSVgmu7bhT2mMi/i5LGqCS1+5z52/dyiZu/T2PytB+ZtK8qb3RUNyF/BRbfI/Lc0d0hdOsRItNz0FSuj1/9F0z/pl7FSgzEn97Kwcvp6MtUpUGTOlSy+o+6S4C2Nm1aO3Jp61rWbNjG0Wt6Gr4zhgENCj56e/bouBO6lSOR6eRoKlPfrz4vWF1UzymOfxu01G7TGsdLW1m7ZgPbjl5D3/AdxgxokPdMl0oJY1SS2n3O/CN6uSDl3DZ+P1eet/87ltbOpfNn9787pfKjGRUVFRUVFZV/B+r2TkVFRUVFReW58Q/biGQSdWQzuy/kC/qetf1QlodE7ZnPzA1XrBqDid22VIz/70pJDJslOTcPfcpNzp+LJCHTgJSWwn0Dz9ak+1eYOFVKlsOSnPuUeCrmXJO+9OQW4+fB386I/C+hlGxEnpI59OE+pn2xmZQKFdHw7O2HchjiLrNryQwCjsRZ8YZgarctDeP/O1MSw+aTnytxa91o3hi3lrORYaz5qj8tX/ovR3WA1SbdkvOXmDhVSpjDkpz7FHhK5lyTvvTEFuPnRGkzIhcDQ2oyhciT/9aUinQ8LXOo/paBHvMWMij/UfRnbT+UQ1O9BT1buFuaOmUxtduWhvH/fSmJYbME5+pOsWD6Jdr+dyLD3hnK/85exY/9q+bl0EqT7tPgrzFxqpQohyU592nwlMy5Jn3pSS3Gz4nSZUQuBoYEgqfMoBB58t8a07+aKczyqGAofDaGUuN2qmC41ccRdvg0kReOGlkozW2S8tZWY2RtkfV0nFs9T3FOltZFG5ASCA1cyab9YVyLPEW4tgdj+niipXBbJSZ2W1uz8Sucq4vhSFAwJ8JDOR0rYZOn9URcs8Zw6mp0cxmraYGGkrjw1czz38wd95doqAtluf8c9t73oq23o7L9UqFuHiEbbwU7pyvmplFrTcuF2TnlTKtmpuUi5mBKJufXf8+cAwb8OrWhjrMTtWpVx77KC1TSFW3SzR+SyfXMc14msSQmTq1sTgxy8TbI11U5izyY2WLNsDTtGkXPEEe4wtryzD6tYPQsrE4B8uyqgWc1OEWtZc7ak2S6+eJVRcjUf2XLnlDmHidXzGTWqkNEO3nT3EPDje0BzN31kDq+ZbgUZE0OZayvxvl3lTMQm6wM+TlUSlKMl2IvKoY5t0yCNRZV075qa2Yxlh2DQo8ql2VlLWoBQyF5aeXC3e3mNaGzyHcr5ygTI7Kc6ZYiDOdKPUuxLg0pnNu8jJVb9nMuNpZrdxxoUO4Ga+f5s/mOOy811BG63J85e+/j1dabihqzvDSw48zMoYyYHYFkb8DBvTn17KMtbNI2RYy7VFPgvyvE8vi8DaXGNlg5w62kZKG0xtpqdG0lW2RQoshVmJPseHOSxI6xvcVHm+8Kfe5Nsaivq/Acc0BkiyJslcLMbmsyfqVz08TOj1uJd1cnCikrTHzpV1G0GbNcHLu1zQrD6U6TW1taTc3swFK0mNW5phieFwRxcmJT4TchVGQp2iTl66bgegrxlrFz7oy/o5Djktg55U2rpqblIuYgQ9alFWJE04qijLOP6P91kLiULopl0i1AJuffHCyRiXNjYoblfKLviYvm8U5Mka+ru0p5UEDGtGsePtl+cTxO0ehZVJ1K8eEiYGAd4dp+uJg8w19MHdRYONcYLAItLKTblXtC0kYx2KOF+OZcXvNJCpoqZoZlWJlDOevrJaNzs4qMi9IcghIl+Xgp9aLcYphzv9mvGHNTTK2yxhZj+TEo9Kg4a2vRKDCyecmSrYncZLN+9+06EyOyrOn2ZJaMgbrg9oo9KyhRZMiMQZLiRfBnb4nxO2OFXh8nggbXEnXGHBDZQhLRszqLmsO3i7w0ThRN/SaI0ByZvEwOFyJtmejr8rYIzHuTlH8fLWzcpRyj/ZKy5fG5G0qND5Ex3OovK1kojc5TtLYaHaRki9x0hGzZOcmPN+viMqbv9eSd3m7Yaj3o1CH/+/iLslUWhtK5+iiOnbiPi3sFNA5+vOhXFttaHWjt0bJow+mkV0xuYWk1NbcDa9EWBIEy+YlVtknK1Y3RFZXibWHnnET3e8sUclwCO6de3rRqalouYg4yODR8nyVhF9n3XXviF79H67afsC2B4pt05XLuZk/DEpg4gw4bLOfzoCKNzOL9SqWbsnXVIkUpD8YDN0LGtGsRPrm1VYjRs6g61VRtRvdm7lTwG8jE8WOZtNSfIfY72XLBzEL6ZS3lnlDlVT4ZmEvg0hCypdtsu+HOGy0crcuhXs766m10btFxUZrDpiPZ8vFS6EW6h8Uw57qVVYy5dSiMIV2hR1VzsK4WXYzepmTz4iBbE1Q263ffvGtkRFYw3QbsJ9fCQG00RaWetekIBpkx5EYu4+dwX4b1qI6trQtNG9d8/DG9Vmtb8NFpGW3ev8vlxew9Qul91NKcbXJaqUb+Fzf50Sk1hlLjQ2QMt1YZLBWtrfJPbeXNytj8K4f8eFskXueWvsBGmO88LL710Bilc7WN6fdGNcI37CUmLozQhJa827c2ttYYTs2Qt5pah7xNUq5ujM8qwCLeJnbOkpuW5cenYFo1MS1bPwcApGhOnLiNZOdOp0+XEHJ2EwN1K/hlbQzFNukq5bxEJk6F+ZjFW6muKCQPsijUoVUoGD2tr9P8s+288a5tQ15ZGVtIC+sJdrQcOQy34AVsCtlGYv1++d+CakUOFa2vRudaHRfLOcgj34taly2mOVch5tahMIZK8rVkq7S2zGvRBPm8KNWERb97bERWNt2WtTBQywcg75oFPUtuDPrbN7kjGce0CJTyYnKI/PuopTlbftylEcuNiIzl8bkbSo0thimWtlKrDJaK1lZzfZG8LdJRdk7y1sVQD1/qJ+0l8FDenxHrcnPR6XKUrYfWoHiuFlfvHrzeqSyXz2sYtn4LnzTUWmc4NaEQq+kjNGVxdMgiJS8IXL+VSrYuf7cud1ErzZZy8Ta1cxZhKX1SO6eSadVAwblKc9ApmCpFMvsW/8aZzLz/a1utHR0avcALLk75rxcMRHZIxijm3Cw41vDIxNn2vPx8LOS18nWlnIdMoo/t41S8aUCU67AApX4hHyEr6hQAQXZ2Zt4Vcm8R/aAd3dqZWUiL6Am2noMZ2foYk75No3WvgqoqMoeFWV/zz7UmLkpzkI+XfC8KySmuOVd2RlaiMIYM+VpSXFsWtWiKZV4KqwnLfpd3bWXTbZa5gdrEcJ5/DYue1ZLzMmPI9fCiduRGFh1KwGB4wO07Kfk/JGgo6+hAVkoymUgkXL9FarYOnVJeNDbYSLnkGtLJdGsh+z5qYc4O0WFIvsDhU7Hmwy91mD6sqmR5fM6GUhMbbPpRfjS3lfo0k7VQNjVcKtra2tzZZLcqa4v8vA2VHSrLzknOXvtB2/a0qhrBgq++J/DUbZLu3uR6miN1X+xM/96+FtbDAlulgdSLGx/bbTs2yuXQsoLx9+/jZ3muUwq7vh/J5DUhnA49zO7fgzkaW4XWXWsSu7oIw6mbk9Hci7YDgx2VDReZ/d8Z7LwiUb1CPGfuamng7cz5oIWWNsn2/eig21qo2VI23jJ2TienBrI5tsq0rGTnbNeNfn27W5hWTUzLCnbOLj6nmThAxlRpSCB8wwoCd4VyKvwou9av5myN8fz8WTMMF60z6Xo+1lU60sDCkvkm0qHFT2ziHOJThVzztZxWg5rph1m3ySjeIlm2rl7s1pdejWTy4LCfCV0GMvVSDYa82YT8bRc2ZXVErjKtw/s+XenmU6ngpyA7ubXlQaWEfazeZG70bE+/1jq2/lxYnQpSj68gYH8suVl3Obv7KNJbU/jUJ47fzS2kckbdRz3Bxom6L9zllPYdPu9aFY21NuRuvejb3dvM+toLh6sF53bv4UHi+sLiIj+Hz9tURiMbL/leNKxRTXk7sKw593Vy9y0p0qJqYsPu2IjcQ8seW4wH9O9jYaEd5pPDbrla6tAY+2tW1KL5rxMs8iLfu7xaVedy0OKCfFfLIWLDgsdG5Ndf7Stjum2KJuRHMwO1seFcoWd93hZ3veUYGrw5jjdrHGfW55NYdOIB1SrEcZqujOnjiWNlAxdn/5cZO68gVa9A/Jm7aBt04qNBbS37vDPc3uPP4r05ePcexeDWqRbWcyzG3QHbzaPp/3+ZfD60jXEESx2mX/FeEsvjP8RQ+rezReojWT0zBK9BL1PhwX0epqcQFbSZuNH/x7gitZ7Pn79dvP8tPEld6cL55ecYhk96g0rmrz1TJG7M6EKvW5O5OL9roX/RU3r5J8whnyeppVLMk/csiajpnekd8y0R817+e+f0KWP20UxJLI//EEPp38wWmXPEnx83n+NGnIFKbjWp6pRFims7ulmn9Xz+/M3i/W+h2HUlxRCyMYqWH/R/zpuQPCSDAcOTNbJSwz9hDjxJLZV2StCz9JKE4W//Jvn0MfpopiSWx3+IofRvaIvU1m5Da8dLbF27hg3bjnJN35B3xgzgucpureVvGO9/C8WuK40zHr6+1K5g+djZs0Z3J5StRyJJz9FQub4f9a1vZKWGf8IcHlHsWirNlKBnGeJPs/XgZdL1ZajaoAl1/pZvkn8Nqn1XRUVFRUVF5bnx/H98UVFRUVFRUfn/7Z15XFRl28d/DKggqKRphgJiIAgoKppLuGbuuy3qq76aj0u+WvrJcgmXstSstIdS3C19XBABw+1JXDKxQMjdFAUETBaVRQSEmTlzvX8M4Zxz7nvmIBoi5/vP83wYzr1c13Vfc2LG8622iG5Eim5dwOnoaERHR+P06d8QE38JiVmF8mcSKERkkn0GeT5NjGIbZuXm4Fk3c1bcsvtP83zW7DPAM2q6Lko8iYifL6H0yQiKqdxzL8eS9ffprLfqne8nTkWNz4YcXI89jejoaERHn0ZcUunDAwtScO608V7htz+zFAhdzSO6EbF9yQW2xz7CG28vQ9TNTKTfOI3/zO2H1h1G45to4zMxlCM2yT6TVGETIxeRDbOSc1AFzJyPb9mtJBTW7PNs6nwaVJrp2pCLbG6iCnH0y/mIyK2LehbyLaaSz70Ui9bfJ7te09qvcuf7SZnoy6ig8VlTD02bZmLz2NcxaVc+nJvUNcay9stoajiAwC//gGOTBgqlrnxEq9PUfAEtfZrBvp4P+rw9AiNGT8OSH6Kwa9QdLB85AVtuMquIg9gk+yxSZU2M5hDZMCs5B8+8mbMClt1KQlHNPuemzqdB5ZiuDciKXIKveInSp4D6rUXwKNdyNvpKPvdSLFp/n+B6RbVf9c73kzLRl1Fh47M1ajduBS+nmmja0g+NbEtzpKmFhq290danHdzrPe7YjxA/0AyA7s9wrD5RF6Pf6wOjOsYGL7VritQNS7FXGIjJvZygkRh0fZqYPhjLBJFJ1gbQs6ydHJsuCyETMRF7cfDIcVzSuaKVax22GVWbhT8ituBkkRuE6LUIjriB2j6+sLmwA2s3HUTqC63RqrGt0aJoycSozeQbNhlxoOw/8NPeo4iJj8e5bAe0fcXkiYwiDMg5H44t2yJw9Hw60q/fQs36eTi0lmdk5FgtGZCpDdNakgOZ/fgKfvx6FbafSIG9Zzu4aJJwIPh7HC5ojk7NNXKbpMFMPBiI1mLDiXE5rJFyUy7bYqrNUmKoNRpOyyy7HDuzNpNvJJXlpEYW4sK24lS+PW7s3owL9TrAt/5dRt0DBsW18gjTmnW8w1iXFxDzlcTU+UIx07IqNZw6pEnrixhns1BeE9w+xDDQcs6ZuRiz+wanHyjNSSPpoqWmbo5JVYYWWX9EYMvJIrgJ0VgbHIEbtX3ga3MBO9ZuwsHUF9C6VWPYysZrDv3vX2H8pG9xSagFg20T+DokIsI0J34esLl6FOdLbb3S/frUvMY3uFqJzz3rjFhC2Rkyk59yWH/tIelTnLNoFsNdnBLVvjdqXf3bwF0Xt1k24wbGxsWqSTkGZP4ajBXf7kJ0hiO8/JqiRsohBK2KwD23jvAse6BeKeZs9oz9Ncg/ha8smehrZJnpv4zzVi7jMwfKxemt65HUaibGv/ro4aIouYAj0S+gd29XCObOrxKkFrzC0NHUwGsOnS4x/ek92tCvFtkN3UYPOOY/JqYmWZ4hl2XTZaFPoh8m/S8FXXlIwu111O/F1+jLqwVye2OajnKvRNCMtrWpw7SNtDMyklaPaEaug+ZR0JZwCl85hFz8FlBcyR0FJkYzhk1mHO5R6Lv/Q+syBRKyfqLAL6KkuyhFoMzID+itOYcoXa+njNCx5Np8Oh0r5hkZeVZL6bhGTG2Yohww16yje3vHkov/IjIKLe9R6NKvKfYhy8abQnd58ZAuohTTtbBjbMF2aQLLlHu1gGEx1eUqMtSWmBh6uXbmwmyukVSek0V09HwoTWttT37jv6FVC6fT0gMX2XVPeQprxQTBpGbNrEtk6mQafI/KDKf7z2yW19c9+dmU14TE0FwGy0B7lV0DMbf5e+H1DWY/UJiTQ3eki5UZZZXuU8i9QhEz2lLtDtNo485Iilw9gpq5DqJ5QVsoPHwlDXHxowVxOs54ebRlUEN6O6SQSMiW5ORT2nV88yNbL3O/Wm6/EJ17C6ZfJoKyM6Tj5YfKYf1dHCezjjPPIlfxbIJJ7QumBm5zNmNWTfIm0yfRmr6Nqefqm8Z6yN5NH358kPKlv2fWZs/fn3kT/SI6eo7Xf1nnrXzGZy76G7SiswP1+u62+Azk/Uiz5/5KJYKZXqQQzn93SjDooNMDtWxtQRzznyW4hlyd3KbLQn/pR6xJboVBnrbQOE3Cttj/4F8ednJ7Yx7g6N0HnZrVglOXMRg9eDD+NdQPhbVaY9LE4Rg+YSC8s1KQZmiowMR4HLU5hs0SZhy0sLX6HV+OnYNNCW0xeybnsbpCArasjEOrCX3wsrU1GrbxLf3rE8fIyLNaWg67CJ61scHgGRitC8Hm6GIIqfuR1GQk/G1ZNt58OHLiYfmTXV6MLdguy2Cbcj3sGBZTOCoy1BpMDL1cO/Px2hwjaQkjJ06wa94fnd1qovkbUzH7szWY5xrBrvtia2W1YorGpGbN2GlFsGyeTnYSw+l8ND/yg7y+tPKzKa8JqaG5FKaB1o1dA+vPwp2zF17f+Dme1Q+gKCeB/RtKVytD6T41jt7o06kZajl1wZjRgzH4X0PhV1gLrSdNxPDhEzDQOwspaZaNwdDUl+RkEUZ171dm62X3P2tOv5BgwfTLRKPsDBVz8nO0sBzWX6mBnHcWuYpnNhpTAzfXZlzArsngo+yPR6ybY8K8t5CxdR3OlBhwe188HEf0hqmX1YgZm32Bkv2xer4T7F7h9F/meSuf8ZmPBtYahv/HYAA0GuW9yAzKbkTyf0PMlVro0K0janDMf5bg2lPt5DZdFkLOPeTcvQOj0NIGDZvVA+Xr2fbGv62LpddqrE3sizYaaKjUKKnAxChwDJtsA+LLGBT0M77tlo7gEX7oteDEowtN0aci+ZYgGtc8HKul5bCLYK+5DlCzPSZPcELkujBE778DjyHNYA2e0ZIdD8vwY6zMdskx5ep5FlNlhtqyOjFnYmUaSXk5Mc5rVToft+4FB2W1IqWsZkv/f9kLHFMqz+YpMpxy9vKy/Gyya4IB00Cby60BgbMXXvzy77H6gY69D0lOlKB4n5DkRGNtYo21gUZDIINB2Xgy6+yjGmb3P2myOSg2/UqxfIZ0nPwUlJTT+muKubNYTkzfB0p/YvyfMpsxvy/xZqvd9X1MaRCCVXtiEHq1CUa2ryn9FTFlU5ba7BXtj3Mm63D6L/O8Pa7xWYK1A+o4AA/u54l+X8i9D6pbz3gTwTm/SpHfiJBBvDjDHfy8+DMccZmFJeNdYMsx6FqCa+18KLfpsqjh0xGtM7ZjyfdnkKPNxbmt63Ew7XeuvZFlXWRhycRoB7aPkm0SvoX9EVcRsHA34mKWoFHkbullRmw80LJZAvZuOIEsgwH5qbdK/3kex8jItVpKBzYPe82FAKzhNnYyOp4OxKd5HWEUjfKNlqx4WIYfYyW2S54pN+13MxZTVrOXUVonZk2srHHM5MRkXm7d2+UwaoVtsJXyaHjWuiAydeY99GDbPEXjcPZyS3o2T3BrQgbTQJvLrQE7zl548evVjtEPMm3Y+5DkxDL82udhfnjeeAZYWQnQ6Qx4kHcfAmuc0h8w+18mOP1CDM/0m59yGlHxmdw3XIC1IDG8/HSvU17rr2hQ7lkssrRm09q/L0jeB1g243pmapKDtTsmftADcQun4rLXW/Bk/hmqFJbNvh5/f0pM9MyMMM+bMuOz1qKhtz46dfFC6qlfcKss8MW4+tMlOHT2KP0iMHNVihF9WbUw+Vfs2LgB+85moqToLq7HHkX45q045TAO362fhU71rIDaLdHJS27QLRPIliE2yfboMxRD2sitnW000XKbrqnqsBQrBx+86p6OsM/mYP6qA7jX5QN8PNAdkJpE73uhk/N1hK7bg3OCF7r6Aqd3bEToBQN8AlpCe2I7NoRfgU3b9mhwPgSbzJoY2wHXIrBxLcOwOXgKRnXME8dhvDPOLZ+Cb8+XoDDrLqz830HfLq7SrQCa+mjla4/oVbMQuOF35DeuC6O4eCA8G7KMjB3Qb1A/udXSxEpchiEXl/euK7VhdkNH3QmTHAzDwNbs3FnZv4IXb8fD5p1ZeP0lDXg2XmfXAvyyY688HiJrLGstPTBi6BBGjC3bLo1YwcHnVZkp11gCUotpJzhfD8U6C4batu0b4HzIJqNlt3dfDB7kxzCxAtciNjKNpIOnjEJHke30IwyjKGxaH4q4Qhd0DmgDp4bebGtwnQKcWiapFf/rTINtGYYcXCyzh3aE66VQ5rpe794MeUdLTZ09+2JIH2+xzfOjYSiJ2iSyGzf07iSrr/HO57BccjZ7NU6V1YTYfFuKlQN8XnWXGGgH4BW/1xg18ArS97Fj/Hqf/hjQSh4/fydfeT8Y0BSOLaX7YOSE8SVvkVG2R1f41bmpbJ8FCYjcsBZ7zgnwMjYbbAy9AINPAFpqT2D7hnBcsWmPIa8BB76WjtcXnvlRCNp4BCUe7VD/Ugg2lOWkMUoumdh6+w9D35by/TowDa7+aPXwaNm57/lGM9wLkZ6RAGDLCIxZegVNx70JP1mxFSAhcoNly/PgqZgYkCfLTzvHF+Cn2Po7Hg1Swx71qYA2COjJsiLb4ujHPTGau2YA1lRmqfVoWw9nd6wvPd8BaHB1B9Nm7NCSVZPtUE9eJmXYujsj53AauiwaD1/eHQvPZl/fAS051mcbMm+iH24VhU2s96PHNj73hNcf8zHCrKFXg8YduqBh3PdYuvkYYn87hgNh+3Cp2TQsGOkCW9zHVU6PNLU2m0N9xPszgJD4JXoMSMOnl9agCouLVZ4Ez4zBVuX5R4u4b1Yi7d1AjKwyxfa4a37CNuO8n7D4+7qYG9gTtaWv/U1FbPbVDPlHMyr/PHoBgoGYX4ZTqUY8YwZblecZAWnRe5HYfiKGVZliq9ian4TNWEjehxWLV2BZYBReGtmNfxMCoGI2++qFeiNS2RgycTY6Fy5+VrgUnSx9VaU6Ye2CgDGj0Z3/5CcVlSeENVwCxmB09ybsf2nzTPL4a9beisXJHBf4WV3E8YQH0peVQ8XIvpkCm6HzMbWluVVocSv2JHJc/GB18TgqMmV1QP1oRkVFRUVFRaXSUP8ioqKioqKiolJpPPUbkefdFmrJKvlP8PhrqICdsiARP6/9Gnuu6pmGR0PuBfy07nPMmx+EqNRyj15FqUA8KxtDLi78tA6fz5uPoKhU6atsCpNxfONSbIl9Ors1rWtWH6meNVY5sOKPokScDP8vLmY/A99uM+1HVZ4CJP68Fl/vuargQZESGL3YSAXG/Ad46jciSm2hVRKLVsl/gAqu4fHslAZk/HkYm74KxskMAZAaHoXrWPd/66EdNQtv1j+Cz4NjpANUHLPW0srj8eJZ2Qi4vu7/sF47CrPerI8jnwdLf4GBATlpl7Bv7Tc4mPQUWpu0rqV9pBrXWKUgjT+AgqgVmBueg7qOlV3t0n5UtTFk/InDm75C8MkM/vNSuLBtuxUb8x9A+sx3lfKhT1hOr3lMp2McP8o/QaWsQZ9Ay1/zoOmMSYXU1dTLZzadEvmKniQCZUa8T3P3FkpfUHkchFRa3cuHZpc7YQX049D6NGLH08mDubpWa6yy0dHF8BCKL5D+vJIw04+qHnpKWP4aeUw/Rk9uN09jzCeHzL4rNTwajZZSc6Q7XjBUluG2BrLiwrD1VD7sb+zG5gv10NW3vsxkyJInFt/6DSEh56CxT8TO73biTJETWrlrcf4/axAUfgtNunpDG7MVQd8dwf0WneHpqJGbPO2tUC6rJOOhOCyDLNtgqUVm3F78cFoP58IofLf+v7jzUjt4N6zBXEPv4Y1weh3Hxqlhzas1sc864o4sro2kS4eQFYOQbWE4GnsdCfFxsOkzHQNfzigzPHrqTmLzmu2IjL0NA4qAl9vBvVaKghw2kseaaZr0AmLE1tJ27rWQIo07KTP6ymPCMlQaFBpWldh8zeWUYY5lGnDlG5FfpzM7TxnCbZzYvAbbI2Nx2wAU4WV2PK1YsTLgYshqXGs5Hs0ursPG/95B47YtjeeWZcVWZFmW13Wf6QPxcsajPtIg40SVqjEAgCETvwavwLe7opHh6AW/pjWQcigIqyLuwa2jJ8qek2bIQBynH7kV/6HccMrq44ycGBQaduV9PBa//JGAi6cU9nFTmFZad2jP/wdrgsJxq0lXeGtjsDXoOxy53wKdPR2hAbu3MvuRm408z7JGzLa+y6/TIZNRR2IY1tvHea8TshATsg1hR2NxPSEecTZ9MK3dPezmGZY1jHkltl3WmNMHusGG+X4jxdjP2MZiVm8zmsqlVm+Z6JqF6LaEaXjUM8yRKZRdSYbbRUfPU+i01mTvN56+WbWQpi89wDUZihAyKS54NDVv9Bq9u/grClo6hnzrNaWxoXdIl7KKeji/SweMCkua36Y1fRxTwrAfLqY4XTmtkhKYBlkt22BZmH2JQqb4Uh3/8bRi7Q7aNrcbNe72Nd3Q89Zgzt4rn/dKhomdMvuyJK6HpEsn4d5BmjlgKoXf1pMueQMNauRG048ViQ2PRKS7sJja+5YanBXl8BAj1uZMkybWUpZddnGcIqMvKyYsm29KtjLDqqntk2fzjbnNyynLtsk24EphXRebxZ9Hhu4CLW7vS3OMCWPGkxkrfSFtG1qPOkwJph2RYbT49SbUc3Uy6ekhw4otKMgJp66LxH3EuOSqUWOm6JPWUN/GPWn1TaPDNHv3h/TxQYa3ldWPfstQbjhl9nGGqTwlW6Fht4J9XLQ4M1ZaXQqt6uFM7xo3Tmfmt6HWH8dQCSf+7H5UzMgzw1TOsL6zrovNstQXWdZbjmXaXIyEe3Rw5gCaGn6b9Lpk2jCoEblNP0bFxOvprHkltl3emFxjshiBayzWMXvbmUKpQXopHbqjRO8rse/yDI9yc2Q+6laS4dbJrjn6d3ZDzeZvYOrsz7BmnqsCkyEAzUto+0ZbNKnbGqPnz8HMwM0IGlcLh8JOotjGBtZlN8w1YGMNgGk/fBnaggpYJTkGWbcEtsHyeG1f9OnoCttXBmLme2Mw5n/7wi0zBX+VcNYAnr2XPa9nYxM7ZX0fcVwD+5et2oiAxC1f4ojbOxjgZA0bl+4I8LABoBEbHiWwjL+yHAb2YcTajGlSPAEz7tYWjb7smLBsvvl1lRlWTW2fPIPo+rPu7JzqOfXGMOCKYV+nt+PUjqWvczDjWcSOlTUAK2s4dx+PMYOHYlQvF6TfTIOAmgwrtsFyTgROXZtahxk8uzUmxrr5BMx7KwNb151BieE29sU7YkRvhrmS1Y/KYThl93GGqTy/riLDrl4U//L3cfEKzVhpi21g82jjqGFsxJz4P+T0I/Z5kJnKraXnyoZ5nd7OQl9kWm85lmkzMSpJ3IIvj7jhnQFOsLZxQfeAvx0unJ7OnFds2xU4Y/KM1vK3TI6x+Pg5Zm8LPl5bYpAORP+GnEMrQfRbPMMjzxxZOYbbOsZ5rUrnU2QyFGOcqiY8PZvBivvYO4790K4CVkmOQTb3NsdgKRhjXEYNa1iTAQY9Zw1c2PPmG8Q5FMVVhh7JN25Cz5zU1NIpRlEOebHmmSZN4cTdwaLRlxMTns1XgWHV+GuWbb7MnPJiwDDgiuFcV4dTO6aXsmDGsz07VpLBbKytYdALIBiYVmyLOTFX16bxl/Ds1piU2uj6/hQ0CFmFPTGhuNpkJCyJW0UoNJyy+zjPVG7ZsGtAxfo4l9LfLbPSSl//G2b8/Tn9iJdn8ZBwkJ6rdO51Zvsi03prxjLNiZE++QZu6k3eT9mzPYI5r9i2yxuTZ7Tmv2WWJcpoLNZmcnubsU5MDdLKEN2IsA2PxRxzpF5iNuRjLHi+fZXrN+XaYk3mNWNqZEHFxTDKEHW4mZKPLr27oLZdbdg+zEF2ESBk3cDN3GJotRwjaUkFrJIcg2xuG47BkhcYG84auPZe9ryZBsjslKzpjNjAq5UH7h0JwQnjpNDptNCWlL5s+lw8Mr4xk9Ic8uyvPNMkNI+spUVO8GfEPcei0ZcdE3M2X2WP/lNg82WOw4mBzIArrSnOdcYQK4SMbzjGhDHqOJYZq0wDsWOijWVasdP3WcgJt66NiOZ6VmusKAWno+LBEyhbu0/EBz3isHDqZXi95cl8QqiG2Y+gOKHMPm7OVM5MopzH7eNMWFba2naobfsQOcaN48bNXBRrtZyajOH0I36eReRIz9UZM9eZ6YtM6605yzQ7RjZereBx7whCTmTDWPo6aLUlAK+nM+cV23Z5Y3KNycy3TIaxuHsnfm9TXk5ixJ/U6Cg5bBb1cHWkek7+NGZNPD0gge5EziC/pt7Ud/IiWvleF3Lt9iHtigqhKT621HLSTrqQdJF2T/Ylu1ZTac/FRDq7dTy1sGtDM/bF0e8bR5GbvT/NOpREJGTQ4cBB1HPY+/Tp8oX00bID9JdAlPfnTproaUut39tLlxNiKWikCzl2XUDHU4sobf886tOiPtV9sQX1/eQw/ZV9mXZN8qZaHmNpU1wWCUQkZBymwEE9adj7n9LyhR/RsgN/EeuTKX3iSgpo0JbGLVlN3636hN5fGEZJOiLS36TtYz3J2a8/TVoWRDMDvGnk0iOUXJRG++f1oRb169KLLfrSJ4fTSSCih5e30MRX3cm71ziaM/ct8m8xiBZF3iB92n6a16cF1a/7IrXo+wkdTmesQpdMYbN6kKtjPXLyH0Nr4h8QkUAZhwNpUM9h9P6ny2nhR8vogDEwtHOiJ9m2fo/2Xk6g2KCR5OLYlRYcT+Wv4eZ2GuvpTH79J9GyoJkU4D2Slh5JZs4rZJ+njaPcyN5/Fh04FyeLq4yHl2nLxFfJ3bsXjZszl97yb0GDFu2juN830ig3e/KfdYiS0q/RwYU9qX6dTvRhSAylPNQryiHp5bHO4dZFIZ1d3p3c2oykzw6lUYks7jrK2vg2+b+5gII2fU+Bs7+mX3Olm2HnQrgTSTP8mpJ338m0aOV71MW1G324K4pCpviQbctJtPNCEl3cPZl87VrR1D0XKfHsVhrfwo7azIikhLRH8TyUVMiuSzM5ZcVAl7WR3vZ/kxYEbaLvA2fT16yNMK4zO4+IPLp2cCH1rF+HOn0YQjEpD9l1LIvVfcq7vJPe9bKlVtNC6eLVGPr3SBdy7PoJnUhJp8gZftTUuy9NXrSS3uviSt0+DKfYdZZzwqzrfXF03rSP5D27NVZ8cDK5OjahUdvuSLdWhi5+IfUev4dypC/8DbMfRdCRbRPJ07Y1vbf3MiXEBtFIF0fquuA4pcr+5RCjjwt3GDnZRVEhU8jHtiVN2nmBki7upsm+dtRq6h66mHiWto5vQXZtZlBkQpo4/uXu45IF6hNpZUADajtuCa3+bhV98v5CCjM2Yrq5fSx5OvtR/0nLKGhmAHmPXEpHkkvYNcnsR5F0I1+eZ2k/E1jnilEfulxGHUnQJYfRrB6u5FjPifzHrCFjSy9vjO7T5S0T6VV3b+o1bg7NfcufWgxaRJE3Crk9XT6vQNnnTXpx4UPOmA/Y7zcy9JS4MoAatB1HS1Z/R6s+eZ8WhiWRjveeK+TS5V2TyLuWB43dFEdZrCE5VKtHvAtJX6Fnv5tYfHktVBmiiorK00Ab9w1Wpr2LQI4eNu+nxfi+7lwE9jSvTHtuUa20VYQnbCw2g7JvkjwvCAYYDGY+i1RRUVGpAEJaNPYmtsdEmR5WQPK+FVi8YhkCo17CyG7V9CYEAFQrbZXhSRiLlVB9bkS0txB7Mgcufla4eDwBqgxRRUXlSWPtEoAxo7uDJVCm4mzcTLHB0PlTYVbc+lyjWmmrCk/MWKyAavXRjIqKioqKisqzRfX5i4iKioqKiorKM8eTvRHhmv8qF6Y5UkVFRUVFRaXSebI3IhzzX6XDMEeqqKioqKioVD7qd0RUVFRUVFRUKg0T+64Bd8/8gK9XbceJFHt4tnOBJukAgr8/jILmHdBcc01ubpSa9lrVQ2KYifmPY/gzZP+Bn/YeRUx8PM5lO6DtKw3Eq3rq5ki5FVGbGcc3W1bAAGxxryoqKioqKtUYkw8rNGj46hD43gnDwfQ6aKQB7F8oxgP7zghw1uHQ7CHYqPkfzHzXGccnTcPm1Hu4Eb0FX8xfgXVHUvDgr+u4fC4KGz77AvuT9IAhHXumTsMBl9GYOXM4am4djgGfx6EY9xH+8Wpk9R2L8YMbIjkuzXQ9gJCMH6fOQ1zLUZj8tj32jHgbq64VMubPQeLvP2DZ/NXYHHkVdl4v4Nyn72DCwlBcc/CAQ+x8TFgZD73hLhKObcBnX+yHcVl7MHXaAbiMnomZw2ti6/AB+Dw2Hdd/3YTPF6zE6m1/wNpZi0Mz3kNwogAIyfghcBMK+87EnDF22Da0Pz49dhXRW77A/BXrcCTlAf5KTEX6nqmYdsAFo2fOxPCaWzF8wOeIK7awVxUVFRUVlWqO5FsTDTB4xmjoQjYjulhA6v4kNBnpD1uWTTPfUWLaW4RR3fuVmf/4hj9r2Fr9ji/HzsGmhLaYPbOTaAWVYo5cfxbuHLOlIrMn1wCsM7tXFRUVFRWV6o7s65s120/GBKdIrAuLxv47HhjSzBrg2DTlpr1H5j++4c8Bg4J+xrfd0hE8wg+9Fpz4+2LjdZVljuSYLRWZPbmmVTuze1VRUVFRUanuyG5EYO2GsZM74nTgp8jr2A8NwLdpFusZpr3SH/ANfznYH3EVAQt3Iy5mCRpF7hZdXnnmSPY4isyeXNPqQ+ZeDdkX8Ut8usksKioqKioq1ROTL6v+jRXsX3kRt+Nt8M6s1/GSBoCVHbQJ27Hi2/24dt8BNlknEZfXFM4PfsGusDgUunRGQJvGKLm0B+uC9+FarQ7o3XcwBvndxfbl6xGbmoIzV+wxZsl0tKtTgFPLpuDb8yUozLoLK/930LeL66PZHXzwqns6wj6bg/mrDuBelw/w8UB3QDr/fVe4PfwFO0LPQfDqCl+cxo6Nobhg8EFASy1ObN+A8Cs28O/VCiVHNyN43zXU6tAbwwcPgvfd7Vi+PhapKWdwxX4Mlkx/Ben7NmJt6CVYte4Gj8IobN90EDfrdMHrfQagr082Ir/8GPO++BFnXxyHj4YRojatR2hcIVw6B6CNU0N4v+aNu9uXY31sKlLOXIH9mCWY3kaDaNlenfHXzmkY9u8izBqvflSjoqKiolK9Uf/5roqKioqKikql8f9lByHfYghDmAAAAABJRU5ErkJggg==;" parent="1" vertex="1">
          <mxGeometry x="720" y="-240" width="546" height="183" as="geometry" />
        </mxCell>
        <mxCell id="JDgJbb337nKRCkUa-LNC-2" value="Camionero" style="whiteSpace=wrap;html=1;align=center;fillColor=#f0a30a;strokeColor=#BD7000;fontColor=#000000;" parent="1" vertex="1">
          <mxGeometry x="690" y="120" width="100" height="40" as="geometry" />
        </mxCell>
        <mxCell id="JDgJbb337nKRCkUa-LNC-3" value="Paquete" style="whiteSpace=wrap;html=1;align=center;fillColor=#f0a30a;strokeColor=#BD7000;fontColor=#000000;" parent="1" vertex="1">
          <mxGeometry x="1030" y="120" width="100" height="40" as="geometry" />
        </mxCell>
        <mxCell id="JDgJbb337nKRCkUa-LNC-4" value="Trasnporta" style="shape=rhombus;perimeter=rhombusPerimeter;whiteSpace=wrap;html=1;align=center;fillColor=#76608a;fontColor=#ffffff;strokeColor=#432D57;" parent="1" vertex="1">
          <mxGeometry x="860" y="120" width="90" height="40" as="geometry" />
        </mxCell>
        <mxCell id="JDgJbb337nKRCkUa-LNC-5" value="" style="endArrow=none;html=1;rounded=0;exitX=0;exitY=0.5;exitDx=0;exitDy=0;" parent="1" source="JDgJbb337nKRCkUa-LNC-4" edge="1">
          <mxGeometry relative="1" as="geometry">
            <mxPoint x="837" y="110" as="sourcePoint" />
            <mxPoint x="790" y="140" as="targetPoint" />
          </mxGeometry>
        </mxCell>
        <mxCell id="JDgJbb337nKRCkUa-LNC-6" value="(1,1)" style="resizable=0;html=1;whiteSpace=wrap;align=right;verticalAlign=bottom;" parent="JDgJbb337nKRCkUa-LNC-5" connectable="0" vertex="1">
          <mxGeometry x="1" relative="1" as="geometry">
            <mxPoint x="34" as="offset" />
          </mxGeometry>
        </mxCell>
        <mxCell id="JDgJbb337nKRCkUa-LNC-7" value="" style="endArrow=none;html=1;rounded=0;exitX=1;exitY=0.5;exitDx=0;exitDy=0;" parent="1" source="JDgJbb337nKRCkUa-LNC-4" target="JDgJbb337nKRCkUa-LNC-3" edge="1">
          <mxGeometry relative="1" as="geometry">
            <mxPoint x="837" y="110" as="sourcePoint" />
            <mxPoint x="1010" y="140" as="targetPoint" />
          </mxGeometry>
        </mxCell>
        <mxCell id="JDgJbb337nKRCkUa-LNC-8" value="(1,N)" style="resizable=0;html=1;whiteSpace=wrap;align=right;verticalAlign=bottom;" parent="JDgJbb337nKRCkUa-LNC-7" connectable="0" vertex="1">
          <mxGeometry x="1" relative="1" as="geometry">
            <mxPoint as="offset" />
          </mxGeometry>
        </mxCell>
        <mxCell id="JDgJbb337nKRCkUa-LNC-9" value="llegan" style="shape=rhombus;perimeter=rhombusPerimeter;whiteSpace=wrap;html=1;align=center;fillColor=#76608a;fontColor=#ffffff;strokeColor=#432D57;" parent="1" vertex="1">
          <mxGeometry x="1200" y="120" width="90" height="40" as="geometry" />
        </mxCell>
        <mxCell id="JDgJbb337nKRCkUa-LNC-10" value="" style="endArrow=none;html=1;rounded=0;exitX=0;exitY=0.5;exitDx=0;exitDy=0;" parent="1" source="JDgJbb337nKRCkUa-LNC-9" edge="1">
          <mxGeometry relative="1" as="geometry">
            <mxPoint x="1177" y="110" as="sourcePoint" />
            <mxPoint x="1130" y="140" as="targetPoint" />
          </mxGeometry>
        </mxCell>
        <mxCell id="JDgJbb337nKRCkUa-LNC-11" value="(1,N)" style="resizable=0;html=1;whiteSpace=wrap;align=right;verticalAlign=bottom;" parent="JDgJbb337nKRCkUa-LNC-10" connectable="0" vertex="1">
          <mxGeometry x="1" relative="1" as="geometry">
            <mxPoint x="34" as="offset" />
          </mxGeometry>
        </mxCell>
        <mxCell id="JDgJbb337nKRCkUa-LNC-12" value="" style="endArrow=none;html=1;rounded=0;exitX=1;exitY=0.5;exitDx=0;exitDy=0;" parent="1" source="JDgJbb337nKRCkUa-LNC-9" edge="1">
          <mxGeometry relative="1" as="geometry">
            <mxPoint x="1177" y="110" as="sourcePoint" />
            <mxPoint x="1350" y="140" as="targetPoint" />
          </mxGeometry>
        </mxCell>
        <mxCell id="JDgJbb337nKRCkUa-LNC-13" value="(1,1)" style="resizable=0;html=1;whiteSpace=wrap;align=right;verticalAlign=bottom;" parent="JDgJbb337nKRCkUa-LNC-12" connectable="0" vertex="1">
          <mxGeometry x="1" relative="1" as="geometry">
            <mxPoint as="offset" />
          </mxGeometry>
        </mxCell>
        <mxCell id="JDgJbb337nKRCkUa-LNC-14" value="Provincia" style="whiteSpace=wrap;html=1;align=center;fillColor=#f0a30a;strokeColor=#BD7000;fontColor=#000000;" parent="1" vertex="1">
          <mxGeometry x="1350" y="120" width="100" height="40" as="geometry" />
        </mxCell>
        <mxCell id="JDgJbb337nKRCkUa-LNC-15" value="Camion" style="whiteSpace=wrap;html=1;align=center;fillColor=#f0a30a;strokeColor=#BD7000;fontColor=#000000;" parent="1" vertex="1">
          <mxGeometry x="390" y="120" width="100" height="40" as="geometry" />
        </mxCell>
        <mxCell id="JDgJbb337nKRCkUa-LNC-16" value="Conducen" style="shape=rhombus;perimeter=rhombusPerimeter;whiteSpace=wrap;html=1;align=center;fillColor=#76608a;fontColor=#ffffff;strokeColor=#432D57;" parent="1" vertex="1">
          <mxGeometry x="550" y="120" width="90" height="40" as="geometry" />
        </mxCell>
        <mxCell id="JDgJbb337nKRCkUa-LNC-17" value="" style="endArrow=none;html=1;rounded=0;exitX=0;exitY=0.5;exitDx=0;exitDy=0;entryX=1;entryY=0.5;entryDx=0;entryDy=0;" parent="1" source="JDgJbb337nKRCkUa-LNC-16" target="JDgJbb337nKRCkUa-LNC-15" edge="1">
          <mxGeometry relative="1" as="geometry">
            <mxPoint x="527" y="110" as="sourcePoint" />
            <mxPoint x="480" y="140" as="targetPoint" />
          </mxGeometry>
        </mxCell>
        <mxCell id="JDgJbb337nKRCkUa-LNC-18" value="(1,N)" style="resizable=0;html=1;whiteSpace=wrap;align=right;verticalAlign=bottom;" parent="JDgJbb337nKRCkUa-LNC-17" connectable="0" vertex="1">
          <mxGeometry x="1" relative="1" as="geometry">
            <mxPoint x="34" as="offset" />
          </mxGeometry>
        </mxCell>
        <mxCell id="JDgJbb337nKRCkUa-LNC-19" value="" style="endArrow=none;html=1;rounded=0;exitX=1;exitY=0.5;exitDx=0;exitDy=0;entryX=0;entryY=0.5;entryDx=0;entryDy=0;" parent="1" source="JDgJbb337nKRCkUa-LNC-16" target="JDgJbb337nKRCkUa-LNC-2" edge="1">
          <mxGeometry relative="1" as="geometry">
            <mxPoint x="527" y="110" as="sourcePoint" />
            <mxPoint x="700" y="140" as="targetPoint" />
          </mxGeometry>
        </mxCell>
        <mxCell id="JDgJbb337nKRCkUa-LNC-20" value="(1,1)" style="resizable=0;html=1;whiteSpace=wrap;align=right;verticalAlign=bottom;" parent="JDgJbb337nKRCkUa-LNC-19" connectable="0" vertex="1">
          <mxGeometry x="1" relative="1" as="geometry">
            <mxPoint as="offset" />
          </mxGeometry>
        </mxCell>
        <mxCell id="Dr3U7uL4SfWmc3DUivS9-1" value="" style="endArrow=none;html=1;rounded=0;exitX=1;exitY=0;exitDx=0;exitDy=0;" parent="1" source="JDgJbb337nKRCkUa-LNC-2" target="Dr3U7uL4SfWmc3DUivS9-2" edge="1">
          <mxGeometry relative="1" as="geometry">
            <mxPoint x="760" y="85" as="sourcePoint" />
            <mxPoint x="820" y="85" as="targetPoint" />
          </mxGeometry>
        </mxCell>
        <mxCell id="Dr3U7uL4SfWmc3DUivS9-2" value="&lt;u&gt;DNI&lt;/u&gt;" style="ellipse;whiteSpace=wrap;html=1;align=center;" parent="1" vertex="1">
          <mxGeometry x="820" y="70" width="50" height="30" as="geometry" />
        </mxCell>
        <mxCell id="Dr3U7uL4SfWmc3DUivS9-3" value="" style="endArrow=none;html=1;rounded=0;exitX=1;exitY=0;exitDx=0;exitDy=0;" parent="1" source="JDgJbb337nKRCkUa-LNC-2" target="Dr3U7uL4SfWmc3DUivS9-4" edge="1">
          <mxGeometry relative="1" as="geometry">
            <mxPoint x="730" y="75" as="sourcePoint" />
            <mxPoint x="790" y="75" as="targetPoint" />
          </mxGeometry>
        </mxCell>
        <mxCell id="Dr3U7uL4SfWmc3DUivS9-4" value="Nombre" style="ellipse;whiteSpace=wrap;html=1;align=center;" parent="1" vertex="1">
          <mxGeometry x="790" y="40" width="50" height="30" as="geometry" />
        </mxCell>
        <mxCell id="Dr3U7uL4SfWmc3DUivS9-5" value="" style="endArrow=none;html=1;rounded=0;exitX=1;exitY=0;exitDx=0;exitDy=0;" parent="1" source="JDgJbb337nKRCkUa-LNC-2" target="Dr3U7uL4SfWmc3DUivS9-6" edge="1">
          <mxGeometry relative="1" as="geometry">
            <mxPoint x="690" y="55" as="sourcePoint" />
            <mxPoint x="750" y="55" as="targetPoint" />
          </mxGeometry>
        </mxCell>
        <mxCell id="Dr3U7uL4SfWmc3DUivS9-6" value="TelÃ©fono" style="ellipse;whiteSpace=wrap;html=1;align=center;" parent="1" vertex="1">
          <mxGeometry x="740" y="40" width="50" height="30" as="geometry" />
        </mxCell>
        <mxCell id="H2n_RDuaeX86qFKXMA6D-1" value="" style="endArrow=none;html=1;rounded=0;exitX=0.75;exitY=0;exitDx=0;exitDy=0;" edge="1" target="H2n_RDuaeX86qFKXMA6D-2" parent="1" source="JDgJbb337nKRCkUa-LNC-2">
          <mxGeometry relative="1" as="geometry">
            <mxPoint x="650" y="55" as="sourcePoint" />
            <mxPoint x="710" y="55" as="targetPoint" />
          </mxGeometry>
        </mxCell>
        <mxCell id="H2n_RDuaeX86qFKXMA6D-2" value="Direccion" style="ellipse;whiteSpace=wrap;html=1;align=center;" vertex="1" parent="1">
          <mxGeometry x="685" y="40" width="50" height="30" as="geometry" />
        </mxCell>
        <mxCell id="H2n_RDuaeX86qFKXMA6D-3" value="" style="endArrow=none;html=1;rounded=0;exitX=0.5;exitY=0;exitDx=0;exitDy=0;" edge="1" target="H2n_RDuaeX86qFKXMA6D-4" parent="1" source="JDgJbb337nKRCkUa-LNC-2">
          <mxGeometry relative="1" as="geometry">
            <mxPoint x="600" y="65" as="sourcePoint" />
            <mxPoint x="660" y="65" as="targetPoint" />
          </mxGeometry>
        </mxCell>
        <mxCell id="H2n_RDuaeX86qFKXMA6D-4" value="Salario" style="ellipse;whiteSpace=wrap;html=1;align=center;" vertex="1" parent="1">
          <mxGeometry x="635" y="50" width="50" height="30" as="geometry" />
        </mxCell>
        <mxCell id="H2n_RDuaeX86qFKXMA6D-5" value="" style="endArrow=none;html=1;rounded=0;exitX=0.75;exitY=0;exitDx=0;exitDy=0;" edge="1" target="H2n_RDuaeX86qFKXMA6D-6" parent="1" source="JDgJbb337nKRCkUa-LNC-2">
          <mxGeometry relative="1" as="geometry">
            <mxPoint x="685" y="15" as="sourcePoint" />
            <mxPoint x="745" y="15" as="targetPoint" />
          </mxGeometry>
        </mxCell>
        <mxCell id="H2n_RDuaeX86qFKXMA6D-6" value="Donde_Vive" style="ellipse;whiteSpace=wrap;html=1;align=center;" vertex="1" parent="1">
          <mxGeometry x="680" width="80" height="30" as="geometry" />
        </mxCell>
        <mxCell id="H2n_RDuaeX86qFKXMA6D-7" value="" style="endArrow=none;html=1;rounded=0;exitX=1;exitY=0;exitDx=0;exitDy=0;" edge="1" target="H2n_RDuaeX86qFKXMA6D-8" parent="1" source="JDgJbb337nKRCkUa-LNC-3">
          <mxGeometry relative="1" as="geometry">
            <mxPoint x="1130" y="75" as="sourcePoint" />
            <mxPoint x="1190" y="75" as="targetPoint" />
          </mxGeometry>
        </mxCell>
        <mxCell id="H2n_RDuaeX86qFKXMA6D-9" value="" style="endArrow=none;html=1;rounded=0;exitX=1;exitY=0;exitDx=0;exitDy=0;" edge="1" target="H2n_RDuaeX86qFKXMA6D-10" parent="1" source="JDgJbb337nKRCkUa-LNC-3">
          <mxGeometry relative="1" as="geometry">
            <mxPoint x="1090" y="45" as="sourcePoint" />
            <mxPoint x="1150" y="45" as="targetPoint" />
          </mxGeometry>
        </mxCell>
        <mxCell id="H2n_RDuaeX86qFKXMA6D-8" value="&lt;u&gt;Codigo_Paquete&lt;/u&gt;" style="ellipse;whiteSpace=wrap;html=1;align=center;" vertex="1" parent="1">
          <mxGeometry x="1145" y="60" width="95" height="30" as="geometry" />
        </mxCell>
        <mxCell id="H2n_RDuaeX86qFKXMA6D-10" value="Descripcion" style="ellipse;whiteSpace=wrap;html=1;align=center;" vertex="1" parent="1">
          <mxGeometry x="1125" y="30" width="75" height="30" as="geometry" />
        </mxCell>
        <mxCell id="H2n_RDuaeX86qFKXMA6D-11" value="" style="endArrow=none;html=1;rounded=0;exitX=0.75;exitY=0;exitDx=0;exitDy=0;" edge="1" target="H2n_RDuaeX86qFKXMA6D-12" parent="1" source="JDgJbb337nKRCkUa-LNC-3">
          <mxGeometry relative="1" as="geometry">
            <mxPoint x="1058" y="25" as="sourcePoint" />
            <mxPoint x="1118" y="25" as="targetPoint" />
          </mxGeometry>
        </mxCell>
        <mxCell id="H2n_RDuaeX86qFKXMA6D-12" value="Destinatario" style="ellipse;whiteSpace=wrap;html=1;align=center;" vertex="1" parent="1">
          <mxGeometry x="1093" width="67" height="30" as="geometry" />
        </mxCell>
        <mxCell id="H2n_RDuaeX86qFKXMA6D-13" value="" style="endArrow=none;html=1;rounded=0;exitX=0.75;exitY=0;exitDx=0;exitDy=0;" edge="1" target="H2n_RDuaeX86qFKXMA6D-14" parent="1" source="JDgJbb337nKRCkUa-LNC-3">
          <mxGeometry relative="1" as="geometry">
            <mxPoint x="1000" y="5" as="sourcePoint" />
            <mxPoint x="1060" y="5" as="targetPoint" />
          </mxGeometry>
        </mxCell>
        <mxCell id="H2n_RDuaeX86qFKXMA6D-14" value="Direccion" style="ellipse;whiteSpace=wrap;html=1;align=center;" vertex="1" parent="1">
          <mxGeometry x="1055" y="-20" width="50" height="30" as="geometry" />
        </mxCell>
        <mxCell id="H2n_RDuaeX86qFKXMA6D-15" value="" style="endArrow=none;html=1;rounded=0;exitX=0;exitY=0;exitDx=0;exitDy=0;" edge="1" target="H2n_RDuaeX86qFKXMA6D-16" parent="1" source="JDgJbb337nKRCkUa-LNC-14">
          <mxGeometry relative="1" as="geometry">
            <mxPoint x="1310" y="15" as="sourcePoint" />
            <mxPoint x="1370" y="15" as="targetPoint" />
          </mxGeometry>
        </mxCell>
        <mxCell id="H2n_RDuaeX86qFKXMA6D-16" value="&lt;u&gt;Codigo_Postal&lt;/u&gt;" style="ellipse;whiteSpace=wrap;html=1;align=center;" vertex="1" parent="1">
          <mxGeometry x="1280" width="95" height="30" as="geometry" />
        </mxCell>
        <mxCell id="H2n_RDuaeX86qFKXMA6D-17" value="" style="endArrow=none;html=1;rounded=0;exitX=0.25;exitY=0;exitDx=0;exitDy=0;" edge="1" target="H2n_RDuaeX86qFKXMA6D-18" parent="1" source="JDgJbb337nKRCkUa-LNC-14">
          <mxGeometry relative="1" as="geometry">
            <mxPoint x="1390" y="35" as="sourcePoint" />
            <mxPoint x="1450" y="35" as="targetPoint" />
          </mxGeometry>
        </mxCell>
        <mxCell id="H2n_RDuaeX86qFKXMA6D-18" value="Nombre" style="ellipse;whiteSpace=wrap;html=1;align=center;" vertex="1" parent="1">
          <mxGeometry x="1375" width="50" height="30" as="geometry" />
        </mxCell>
        <mxCell id="H2n_RDuaeX86qFKXMA6D-19" value="" style="endArrow=none;html=1;rounded=0;exitX=1;exitY=0;exitDx=0;exitDy=0;" edge="1" target="H2n_RDuaeX86qFKXMA6D-20" parent="1" source="JDgJbb337nKRCkUa-LNC-15">
          <mxGeometry relative="1" as="geometry">
            <mxPoint x="440" y="55" as="sourcePoint" />
            <mxPoint x="500" y="55" as="targetPoint" />
          </mxGeometry>
        </mxCell>
        <mxCell id="H2n_RDuaeX86qFKXMA6D-20" value="&lt;u&gt;Matricula&lt;/u&gt;" style="ellipse;whiteSpace=wrap;html=1;align=center;" vertex="1" parent="1">
          <mxGeometry x="500.5" y="60" width="65" height="30" as="geometry" />
        </mxCell>
        <mxCell id="H2n_RDuaeX86qFKXMA6D-21" value="" style="endArrow=none;html=1;rounded=0;exitX=0.9;exitY=0;exitDx=0;exitDy=0;exitPerimeter=0;" edge="1" target="H2n_RDuaeX86qFKXMA6D-22" parent="1" source="JDgJbb337nKRCkUa-LNC-15">
          <mxGeometry relative="1" as="geometry">
            <mxPoint x="450" y="45" as="sourcePoint" />
            <mxPoint x="510" y="45" as="targetPoint" />
          </mxGeometry>
        </mxCell>
        <mxCell id="H2n_RDuaeX86qFKXMA6D-22" value="Modelo" style="ellipse;whiteSpace=wrap;html=1;align=center;" vertex="1" parent="1">
          <mxGeometry x="485" y="30" width="50" height="30" as="geometry" />
        </mxCell>
        <mxCell id="H2n_RDuaeX86qFKXMA6D-23" value="" style="endArrow=none;html=1;rounded=0;exitX=0.75;exitY=0;exitDx=0;exitDy=0;" edge="1" target="H2n_RDuaeX86qFKXMA6D-24" parent="1" source="JDgJbb337nKRCkUa-LNC-15">
          <mxGeometry relative="1" as="geometry">
            <mxPoint x="414" y="25" as="sourcePoint" />
            <mxPoint x="474" y="25" as="targetPoint" />
          </mxGeometry>
        </mxCell>
        <mxCell id="H2n_RDuaeX86qFKXMA6D-24" value="Tipo" style="ellipse;whiteSpace=wrap;html=1;align=center;" vertex="1" parent="1">
          <mxGeometry x="449" y="10" width="50" height="30" as="geometry" />
        </mxCell>
        <mxCell id="H2n_RDuaeX86qFKXMA6D-25" value="" style="endArrow=none;html=1;rounded=0;exitX=0.75;exitY=0;exitDx=0;exitDy=0;" edge="1" target="H2n_RDuaeX86qFKXMA6D-26" parent="1" source="JDgJbb337nKRCkUa-LNC-15">
          <mxGeometry relative="1" as="geometry">
            <mxPoint x="364" y="25" as="sourcePoint" />
            <mxPoint x="424" y="25" as="targetPoint" />
          </mxGeometry>
        </mxCell>
        <mxCell id="H2n_RDuaeX86qFKXMA6D-26" value="Potencia" style="ellipse;whiteSpace=wrap;html=1;align=center;" vertex="1" parent="1">
          <mxGeometry x="399" y="10" width="50" height="30" as="geometry" />
        </mxCell>
      </root>
    </mxGraphModel>
  </diagram>
</mxfile>
